<?xml version="1.0" encoding="UTF-8" standalone="no"?>
<!-- Created with Inkscape (http://www.inkscape.org/) -->

<svg
   xmlns:dc="http://purl.org/dc/elements/1.1/"
   xmlns:cc="http://creativecommons.org/ns#"
   xmlns:rdf="http://www.w3.org/1999/02/22-rdf-syntax-ns#"
   xmlns:svg="http://www.w3.org/2000/svg"
   xmlns="http://www.w3.org/2000/svg"
   xmlns:sodipodi="http://sodipodi.sourceforge.net/DTD/sodipodi-0.dtd"
   xmlns:inkscape="http://www.inkscape.org/namespaces/inkscape"
   width="1488.1899"
   height="837.10999"
   id="svg2"
   version="1.1"
   inkscape:version="0.48.2 r9819"
   sodipodi:docname="logo_white.svg"
   inkscape:export-filename="/Users/giacecco/Desktop/test.eps.png"
   inkscape:export-xdpi="90"
   inkscape:export-ydpi="90">
  <defs
     id="defs4" />
  <sodipodi:namedview
     id="base"
     pagecolor="#ffffff"
     bordercolor="#666666"
     borderopacity="1.0"
     inkscape:pageopacity="0.0"
     inkscape:pageshadow="2"
     inkscape:zoom="0.33312252"
     inkscape:cx="633.97245"
     inkscape:cy="410.32246"
     inkscape:document-units="px"
     inkscape:current-layer="layer2"
     showgrid="false"
     width="744.09px"
     height="837.11px"
     inkscape:window-width="1440"
     inkscape:window-height="852"
     inkscape:window-x="0"
     inkscape:window-y="0"
     inkscape:window-maximized="1" />
  <metadata
     id="metadata7">
    <rdf:RDF>
      <cc:Work
         rdf:about="">
        <dc:format>image/svg+xml</dc:format>
        <dc:type
           rdf:resource="http://purl.org/dc/dcmitype/StillImage" />
        <dc:title></dc:title>
      </cc:Work>
    </rdf:RDF>
  </metadata>
  <g
     inkscape:groupmode="layer"
     id="layer2"
     inkscape:label="Reference logo"
     style="display:inline">
    <path
       style="fill:#000000"
       d="m 438.63712,793.31544 c -0.62279,-2.40601 -1.90222,-8.19165 -2.84314,-12.85704 -0.94092,-4.66539 -1.90913,-8.99105 -2.15161,-9.61262 -0.35424,-0.90814 3.08574,-1.86595 17.50866,-4.8749 18.52749,-3.86521 24.74884,-5.65757 26.21378,-7.55208 0.99461,-1.28642 0.56363,-13.57358 -0.5698,-16.24345 -0.91481,-2.155 -1.92767,-2.06554 -17.53181,1.54875 -17.46607,4.04542 -25.72753,3.18148 -33.80791,-3.53561 -3.43339,-2.8542 -5.19614,-6.11782 -7.84617,-14.52716 -2.05686,-6.52697 -4.37376,-42.97319 -3.42622,-53.89634 0.90561,-10.43968 2.70416,-12.85367 13.49936,-18.1187 5.63592,-2.74871 8.82301,-3.64589 20.92479,-5.89028 l 14.2762,-2.64756 -0.31913,-2.19951 c -0.17551,-1.20974 -0.28526,-3.70082 -0.24431,-5.53569 l 0.0745,-3.33594 3.70304,-0.0179 c 2.03667,-0.0105 6.19345,0.33443 9.23732,0.76482 l 5.53428,0.78271 8.717,56.56523 c 8.473,54.98183 9.76202,66.12892 9.08676,78.57959 -0.37088,6.8388 -2.70746,12.94002 -5.54773,14.4861 -6.42946,3.49987 -25.40079,8.31415 -43.31118,10.99082 l -10.04467,1.50126 -1.13236,-4.37456 z m 20.39937,-73.31527 c 3.55211,-1.21567 7.5654,-2.98161 8.91842,-3.9244 4.75311,-3.31177 4.87603,-4.41379 2.36001,-21.15835 -1.26135,-8.39278 -2.63244,-16.0169 -3.04743,-16.94246 -0.94194,-2.10081 -5.45195,-3.02539 -14.43889,-2.96012 -7.66888,0.0555 -14.85223,2.18446 -17.08034,5.06163 -2.39131,3.08778 2.26702,30.39751 6.52288,38.24081 1.32795,2.44728 5.77899,4.50913 8.83625,4.0932 0.80888,-0.11014 4.377,-1.19469 7.9291,-2.41031 z M 1030.674,693.27622 c -2.7109,-0.36566 -4.0958,-3.90895 -5.6851,-14.54423 -1.9217,-12.85675 -1.7178,-13.25153 7.5575,-14.63779 5.327,-0.79617 6.4816,-0.70962 7.4614,0.559 0.6374,0.82546 1.9292,6.65529 2.8709,12.95529 1.6056,10.74517 1.6063,11.53007 0.018,12.67487 -1.8775,1.34704 -9.8808,3.30791 -12.2156,2.99289 z m 199.7269,-30.87498 c -2.5634,-1.81415 -4.5183,-8.29684 -5.3524,-17.74801 -0.7479,-8.47295 -0.093,-9.31482 8.2181,-10.55686 8.1987,-1.22533 8.3624,-1.02433 10.4312,12.81848 1.9972,13.36298 1.8217,13.82164 -5.9984,15.69438 -4.4901,1.07528 -5.5269,1.04574 -7.2985,-0.20799 z m 156.9166,-32.15659 c -1.7133,-1.09994 -3.8732,-3.01653 -4.7999,-4.2591 -1.5967,-2.14108 -5.9563,-13.21477 -12.0348,-30.57123 -1.5053,-4.29711 -3.0735,-8.08393 -3.4853,-8.41513 -0.4119,-0.3312 -2.5373,2.04231 -4.7233,5.27431 l -3.9747,5.87654 2.0535,16.76146 2.0536,16.76154 -4.7588,1.38617 c -17.6731,5.14803 -16.5848,5.2518 -16.9035,-1.61065 -0.3503,-7.53782 -14.772,-113.44776 -16.5289,-121.38366 -1.1826,-5.34239 -1.4111,-7.85393 -0.7622,-8.38201 1.0781,-0.87754 14.1027,-1.08079 16.5533,-0.25833 1.5417,0.51736 2.0335,3.03436 6.7197,34.39104 2.781,18.60811 5.3979,33.7818 5.8156,33.71936 1.1182,-0.16702 15.2192,-21.46928 20.2627,-30.61094 7.2203,-13.08707 5.7633,-11.73396 12.5121,-11.61897 3.243,0.0555 7.4545,-0.1264 9.3586,-0.40362 4.0335,-0.58749 6.271,0.11695 5.862,1.84498 -0.1583,0.6717 -4.5606,8.41401 -9.7811,17.20508 -12.7862,21.53029 -11.939,19.32366 -9.8039,25.5388 2.8478,8.28851 8.764,22.09642 10.6322,24.81407 2.2607,3.28862 7.9967,4.63888 13.1484,3.09529 l 3.6978,-1.10798 2.068,13.83725 2.068,13.83726 -10.5988,3.08734 c -5.8296,1.69798 -10.8095,3.11064 -11.0672,3.13923 -0.2574,0.0289 -1.87,-0.84805 -3.5831,-1.9481 z M 185.18027,807.28559 c -0.22806,-0.26318 -3.53048,-19.32615 -7.33875,-42.36233 l -6.92409,-41.88396 9.95942,-2.49247 c 5.47768,-1.37087 10.65774,-2.59692 11.51121,-2.72442 1.43048,-0.21379 1.6389,0.6515 2.66611,11.06905 3.26385,33.10053 5.36965,58.30502 5.47941,65.58296 l 0.12343,8.18033 -3.43725,1.1378 c -1.89049,0.62579 -5.27947,1.77532 -7.53104,2.55462 -2.25156,0.77928 -4.28036,1.20156 -4.50839,0.93842 z m 329.54825,-49.08361 c -0.3,-0.3446 -3.4974,-19.45977 -7.10533,-42.47806 l -6.55984,-41.85145 3.88219,-1.13245 c 2.13521,-0.62286 7.14609,-1.90551 11.13525,-2.85035 l 7.25309,-1.718 2.08492,17.7423 c 2.47251,21.0403 5.65799,64.23084 4.88928,66.29145 -0.34035,0.91236 -2.86627,2.21251 -6.82773,3.51446 -3.45816,1.1364 -6.71929,2.30081 -7.24694,2.58747 -0.52766,0.28663 -1.20482,0.23941 -1.50489,-0.10529 z M 787.62195,717.4178 c -0.30153,-0.34442 -3.49306,-19.46127 -7.09214,-42.48198 l -6.54375,-41.85575 3.86898,-1.12851 c 2.12793,-0.62069 7.12998,-1.90097 11.11572,-2.84499 l 7.24654,-1.71648 2.14639,18.16529 c 1.88191,15.92609 3.89114,39.49322 4.98076,58.41886 0.19026,3.30364 0.1143,6.65647 -0.16703,7.45067 -0.32564,0.91645 -2.80996,2.19886 -6.80065,3.51034 -3.45807,1.1364 -6.71921,2.30083 -7.24689,2.58747 -0.52767,0.28663 -1.20618,0.23962 -1.50774,-0.10497 z m -70.4008,6.69297 c -0.40598,-1.07914 -2.13337,-9.73764 -3.83857,-19.24096 -1.70504,-9.50344 -4.59429,-24.65013 -6.42066,-33.65944 -8.76678,-43.25036 -10.99141,-54.826 -10.62726,-55.29706 0.69575,-0.89975 21.39922,0.51015 24.04108,1.63716 0.8083,0.34487 1.57704,2.93671 2.3331,7.86759 l 1.12758,7.35325 1.52832,-2.82481 c 2.67792,-4.94919 8.53628,-11.90389 12.08895,-14.35108 2.59651,-1.78842 5.07081,-2.61934 10.09255,-3.38916 6.1847,-0.94809 6.85918,-0.87362 9.58879,1.05815 1.70962,1.20987 3.7904,3.91727 4.98079,6.48099 2.30497,4.9632 7.26182,29.52169 6.13388,30.38958 -0.39177,0.30146 -4.94509,1.45161 -10.11824,2.55594 l -9.40609,2.00792 -0.62227,-4.07585 c -0.34207,-2.24177 -1.27865,-4.95143 -2.08078,-6.02157 -1.25983,-1.68109 -1.96862,-1.83664 -5.21076,-1.14344 -4.27078,0.91307 -13.06358,6.69951 -13.66018,8.98962 -0.21839,0.83848 1.64894,16.66894 4.14962,35.17873 5.24312,38.80885 6.03558,34.08844 -6.18311,36.83664 -7.0403,1.58342 -7.17041,1.57762 -7.89658,-0.3522 z M 877.1063,700.18838 c -0.47158,-1.05422 -1.06855,-3.29137 -1.3263,-4.9715 -0.25812,-1.67999 -0.98765,-4.79076 -1.62169,-6.91263 l -1.15292,-3.85808 -2.30006,4.71746 c -4.59958,9.43456 -10.48905,13.7987 -20.64279,15.29645 -10.34595,1.52614 -22.19873,-1.11584 -26.92666,-6.0019 -4.78016,-4.93981 -8.73004,-23.13099 -12.20305,-56.2011 -1.37799,-13.12232 -2.65736,-26.73331 -2.84267,-30.2467 -0.33284,-6.30632 -0.30191,-6.4023 2.4133,-7.5219 3.19309,-1.3167 13.57541,-1.49083 14.66941,-0.24605 0.40338,0.45892 2.32293,9.6273 4.26551,20.37416 5.41281,29.94248 6.66788,35.04597 9.03019,36.71779 1.78257,1.26149 2.76689,1.24202 9.08431,-0.17966 3.89696,-0.87709 8.51959,-2.33841 10.27279,-3.24757 6.26805,-3.2504 6.18328,-1.93621 2.02153,-31.37032 -2.56133,-18.11341 -3.45439,-26.62553 -2.84583,-27.12096 1.37272,-1.11718 18.37984,-4.62405 19.22665,-3.96442 0.91502,0.71259 6.92037,30.51324 14.33043,71.1125 4.06206,22.25581 5.28779,30.47844 4.66361,31.28569 -0.46578,0.60228 -4.53926,1.80619 -9.05232,2.67532 -8.01967,1.54446 -8.22523,1.53678 -9.06341,-0.33658 z m 431.6763,-71.22366 c -1.0517,-4.65566 -2.2142,-8.41979 -2.5831,-8.36459 -0.3687,0.0554 -0.9806,1.1195 -1.3597,2.36528 -1.2162,3.9971 -6.7869,10.94333 -10.7117,13.35674 -8.0133,4.92723 -22.6115,5.05003 -33.253,0.27987 -7.0293,-3.15102 -8.4808,-6.54044 -12.423,-29.00836 -2.8563,-16.28047 -6.2837,-46.16608 -7.0395,-61.38404 -0.2826,-5.68596 -0.2736,-5.7083 2.6478,-6.62049 3.5247,-1.10072 12.7012,-1.15478 14.2164,-0.0837 0.6797,0.48034 2.4782,8.69527 4.8205,22.01882 5.1412,29.24194 6.4034,33.99403 9.375,35.29428 3.2683,1.43 14.989,-1.31446 20.2385,-4.73889 l 3.8161,-2.48933 -0.3345,-6.8738 c -0.1841,-3.78053 -1.9191,-15.85661 -3.8559,-26.83565 -3.3115,-18.771 -3.4323,-20.0239 -2.0258,-21.00246 0.8223,-0.57229 5.5002,-1.90138 10.3944,-2.95354 l 8.8992,-1.913 1.1774,4.40277 c 4.1937,15.68157 18.8282,97.58246 17.6979,99.04426 -0.3031,0.39203 -4.4287,1.44574 -9.168,2.34164 l -8.6166,1.62895 -1.9123,-8.46481 z M 260.78857,768.86507 c -5.53251,-31.93976 -8.79104,-41.98003 -13.76639,-42.41767 -2.91433,-0.25646 -9.42067,3.39169 -12.00113,6.72898 -2.35619,3.04724 -2.28521,4.97051 1.38419,37.50134 1.01232,8.9747 1.63322,16.77673 1.37974,17.3378 -0.65088,1.4407 -11.16892,3.79938 -14.13066,3.16876 l -2.46172,-0.52416 -2.80107,-15.00125 c -4.29901,-23.02339 -10.8224,-56.80965 -13.07283,-67.70752 l -2.02368,-9.7998 3.51624,-1.49053 c 1.93394,-0.81983 7.2102,-1.93068 11.72503,-2.46859 l 8.2088,-0.9779 0.84662,7.66273 0.84663,7.66274 3.89568,-5.14627 c 4.91649,-6.49473 8.97711,-9.32697 14.5707,-10.16295 5.1868,-0.77511 7.89995,0.46585 12.88298,5.89277 1.90884,2.07893 3.70092,3.73976 3.98241,3.69091 0.28158,-0.0482 1.29604,-2.08953 2.25455,-4.53466 2.10909,-5.38022 7.61803,-10.45362 13.15135,-12.11159 2.1544,-0.64552 6.69879,-1.36358 10.09866,-1.59573 6.96131,-0.47524 11.28859,1.30035 14.74382,6.04996 5.48526,7.54005 13.19223,40.09033 16.60946,70.15005 1.69205,14.88399 1.69098,15.57605 -0.0252,16.18666 -3.08582,1.0979 -13.1056,4.14906 -14.12609,4.30159 -0.69346,0.10371 -1.5499,-4.68844 -2.97543,-16.6484 -2.27983,-19.12709 -7.53494,-44.42676 -10.06868,-48.47344 -1.95619,-3.12431 -5.55614,-3.61686 -12.62099,-1.72691 -5.71637,1.52922 -8.83757,4.53888 -9.40967,9.07327 -0.26329,2.08706 1.24492,16.69413 3.58173,34.68932 l 4.03653,31.08421 -7.12195,1.31374 -7.122,1.31375 -3.98766,-23.02119 z m 692.05797,-81.21321 c -0.41477,-0.70928 -2.10875,-10.30503 -3.76435,-21.32398 -4.92557,-32.78184 -8.77404,-43.83894 -14.93805,-42.91764 -2.77892,0.41531 -10.36007,5.77901 -11.42349,8.08206 -1.2294,2.66229 -0.85102,9.38473 1.87823,33.38468 1.26511,11.12282 2.07445,20.51488 1.79915,20.87117 -0.64691,0.83661 -15.12329,3.13619 -15.97292,2.53737 -0.35484,-0.25002 -2.69198,-11.58466 -5.19387,-25.18804 -2.50191,-13.60339 -5.93607,-31.34175 -7.63162,-39.41847 -1.69555,-8.07679 -3.55778,-17.81222 -4.13856,-21.63412 l -1.0557,-6.94898 3.39337,-1.43857 c 1.86627,-0.79109 7.08723,-1.87855 11.60207,-2.41639 l 8.20885,-0.97786 0.83187,7.66486 0.83185,7.66497 4.02443,-5.37745 c 5.25892,-7.02712 8.0146,-8.9712 13.97981,-9.86266 5.48397,-0.81957 8.54789,0.59248 13.82649,6.37196 1.62575,1.78013 3.20049,3.19548 3.49945,3.14538 0.29887,-0.0499 1.08294,-1.74531 1.74231,-3.76707 1.55235,-4.76102 6.09818,-10.01903 10.1947,-11.79218 4.10599,-1.77728 13.70194,-3.2329 18.07444,-2.74166 5.0509,0.5673 9.938,4.88095 12.6136,11.13344 4.629,10.8167 8.2232,26.5006 12.2545,53.47672 2.9645,19.83545 3.6611,26.29927 2.9162,27.06383 -0.5382,0.55249 -2.7334,1.49491 -4.8785,2.09436 -2.1451,0.59944 -5.5603,1.60288 -7.5894,2.22974 l -3.6891,1.13986 -1.6918,-15.22617 c -1.6884,-15.19796 -6.8857,-41.51704 -9.4253,-47.72923 -2.0331,-4.97374 -3.6022,-5.61916 -10.9158,-4.49047 -8.00781,1.23559 -11.28782,3.39068 -12.13706,7.97366 -0.40902,2.20698 0.77143,13.73539 3.60194,35.1776 l 4.2105,31.89476 -7.14216,1.31705 c -5.92678,1.0929 -7.2703,1.09773 -7.89628,0.0276 z m -602.0536,83.13703 c -7.58643,0.11781 -8.77463,-0.0986 -10.92081,-1.98997 -5.44277,-4.79623 -8.55066,-14.96498 -9.34398,-30.57273 -0.64944,-12.77658 -0.0222,-16.16191 3.44142,-18.57526 4.94892,-3.44827 21.56496,-8.3972 39.86509,-11.87352 l 4.82878,-0.91736 -0.65259,-6.13576 -0.6526,-6.13575 -3.13558,-1.08737 c -2.8067,-0.97324 -5.65889,-0.70625 -27.19613,2.54638 l -24.06055,3.63375 -1.98273,-13.26674 c -1.43306,-9.58888 -1.71244,-13.55169 -1.00772,-14.29445 0.53626,-0.56533 2.60122,-1.70056 4.58884,-2.52282 1.98762,-0.82215 5.23364,-2.16945 7.21342,-2.99402 5.77081,-2.40325 37.08014,-6.84255 42.67362,-6.05059 9.27527,1.31337 14.93075,4.51807 20.47196,11.60046 6.80667,8.69992 6.86154,8.91381 11.59986,45.23535 2.37696,18.22076 4.29646,34.88506 4.26554,37.03167 -0.055,3.8235 -0.12748,3.91808 -3.55739,4.64137 -1.9257,0.40611 -5.63015,1.44573 -8.23217,2.3103 -2.60202,0.86447 -10.63622,2.83785 -17.85378,4.38526 -7.21752,1.54742 -15.08412,3.28283 -17.48131,3.85658 -2.39719,0.57362 -8.18923,1.10252 -12.87118,1.1753 z m 20.83813,-22.68737 c 3.13937,-0.97494 7.70963,-2.65157 10.15619,-3.72572 l 4.44827,-1.95321 -1.69412,-11.3354 c -1.17342,-7.85154 -2.04576,-11.47848 -2.83831,-11.80103 -1.49059,-0.60661 -18.40233,1.91522 -24.6838,3.68013 -7.74655,2.17731 -8.05107,2.76033 -6.52233,12.48743 2.48081,15.78509 5.40146,17.5329 21.13398,12.64712 z m 267.38357,-20.30376 c -4.50725,0.11464 -8.90162,-0.19958 -9.76513,-0.69823 -0.86352,-0.49871 -2.73822,-2.55049 -4.16597,-4.55968 -2.19157,-3.08411 -2.90526,-5.35896 -4.58252,-14.60724 -2.23078,-12.30038 -2.82315,-25.13357 -1.29465,-28.05047 2.71078,-5.17313 15.80954,-9.7796 43.40522,-15.26455 l 3.92984,-0.78117 0.10202,-4.30252 c 0.13187,-5.52442 -0.86088,-7.74417 -4.09197,-9.15424 -2.3324,-1.01791 -5.17153,-0.74993 -27.2428,2.57138 l -24.63889,3.70776 -1.53818,-13.35996 c -0.84593,-7.34797 -1.35005,-13.77646 -1.12005,-14.28554 0.22999,-0.50916 4.14365,-2.34216 8.69697,-4.07346 6.84742,-2.60362 11.03396,-3.56517 24.21516,-5.56148 17.03752,-2.58062 23.33126,-2.62026 29.36632,-0.18539 5.07362,2.04697 10.37668,6.60388 14.64711,12.58604 l 3.83173,5.36762 5.45938,37.35438 c 3.84512,26.30754 5.23995,37.93658 4.71668,39.32329 -0.5966,1.58044 -1.56402,2.09571 -4.90413,2.61138 -2.28842,0.35346 -5.69657,1.24051 -7.57375,1.9714 -1.87719,0.73083 -9.31627,2.60811 -16.53132,4.17171 -7.21524,1.56357 -15.28011,3.33057 -17.92233,3.92662 -2.64222,0.59616 -8.49179,1.17761 -12.99903,1.29232 z m 20.82199,-22.84214 c 3.45068,-1.06182 7.99382,-2.65791 10.09554,-3.5468 l 3.8215,-1.61623 -1.75761,-11.75969 -1.75743,-11.75958 -5.39608,0.141 c -5.22344,0.13662 -22.29736,3.75244 -25.1868,5.33407 -2.62007,1.4341 -2.74439,6.98148 -0.33953,15.14832 2.69515,9.15282 2.98825,9.64931 6.04226,10.23448 3.39689,0.6507 7.10253,0.0939 14.47815,-2.17557 z m 403.18967,-42.76344 c -5.929,-2.06979 -11.2903,-7.12041 -14.0944,-13.27781 -2.1954,-4.82115 -3.0116,-8.85494 -6.5938,-32.58637 -3.5101,-23.2451 -3.9729,-27.77613 -3.2743,-31.96592 1.1962,-7.17252 4.2955,-13.11393 8.5736,-16.43528 6.8139,-5.29028 27.5609,-9.91185 49.1745,-10.95402 5.5233,-0.26637 10.5626,-0.11535 11.1984,0.33573 1.6411,1.16463 5.5945,31.8647 4.3159,33.5167 -0.5139,0.664 -4.8948,2.07506 -9.9063,3.19063 -8.3043,1.84854 -26.627,6.83453 -30.6112,8.32982 -0.9403,0.35289 -2.7975,1.03698 -4.1271,1.52016 -3.5074,1.27447 -5.073,7.30333 -4.0257,15.50202 1.1255,8.81001 1.0014,8.77029 18.9651,6.08559 7.9022,-1.18096 17.3157,-3.02691 20.9191,-4.10211 3.6035,-1.07515 6.8746,-1.7272 7.2693,-1.44877 0.3945,0.27835 1.8904,7.46343 3.324,15.96681 l 2.6068,15.46068 -5.8982,1.78477 c -14.2681,4.31751 -19.6422,5.66053 -31.6189,7.90204 -11.6075,2.17242 -13.0423,2.27654 -16.1968,1.17533 z m 79.377,-16.3464 c -2.7116,-0.8033 -6.437,-4.91747 -10.0918,-11.1454 -3.1182,-5.31299 -3.2131,-5.71885 -7.348,-31.36595 -5.4191,-33.61571 -5.6191,-47.24696 -0.7412,-50.58532 8.6772,-5.93895 53.0948,-11.89693 65.9646,-8.84832 1.8326,0.43409 4.1257,1.64512 5.0963,2.69115 5.2093,5.6148 12.5261,43.53245 12.7693,66.17394 0.1549,14.47624 -0.6496,19.67118 -3.2047,20.67615 -11.7148,4.60772 -57.8362,13.7691 -62.4445,12.40375 z m 36.3208,-26.58457 c 6.5093,-4.53553 7.0149,-8.63239 3.5436,-28.7215 -3.1177,-18.04251 -4.5617,-21.31319 -10.115,-22.91249 -4.1718,-1.2014 -14.5159,-0.54435 -22.1333,1.40597 -8.4172,2.1551 -8.6334,3.16148 -5.2958,24.63664 3.0832,19.83764 4.9192,25.75009 8.6487,27.85042 5.2861,2.97692 19.6775,1.6946 25.3518,-2.25904 z M 580.50859,692.0926 c -3.87635,-25.93717 -4.46251,-28.84509 -6.27989,-31.15752 -1.10246,-1.40269 -2.95493,-2.74418 -4.11658,-2.98101 -2.69662,-0.5498 -9.12197,1.60664 -12.68171,4.25623 l -2.75102,2.04758 3.72279,27.93053 3.72279,27.93045 -5.22368,1.2955 c -2.87305,0.7126 -6.43707,1.75486 -7.92007,2.3163 l -2.69637,1.02073 -1.55881,-6.95793 c -3.45303,-15.41307 -7.7158,-35.57332 -11.14187,-52.69413 -1.98851,-9.93703 -4.15353,-20.02453 -4.81112,-22.41662 -1.15659,-4.20722 -1.11755,-4.39207 1.19398,-5.65597 1.52907,-0.83601 5.20382,-1.51359 10.20395,-1.88157 7.78421,-0.57275 7.81566,-0.56596 8.16279,1.75674 0.56475,3.77868 2.59751,10.02632 3.23143,9.93158 0.32211,-0.0481 0.88815,-1.49017 1.25779,-3.2045 0.89308,-4.14176 5.83457,-12.24983 9.03346,-14.82238 3.0078,-2.41878 10.48667,-3.81155 15.62079,-2.90892 9.27946,1.63126 16.06573,9.22828 19.58538,21.92548 1.2037,4.34214 4.22321,21.20959 6.71015,37.48314 l 4.5215,29.58822 -3.44963,1.08371 c -1.89722,0.59599 -7.18702,1.90221 -11.75508,2.9026 l -8.3056,1.8189 -4.27536,-28.60714 z m -77.99461,-37.05764 c -8.59217,-3.42606 -13.06207,-22.05221 -7.33177,-30.55138 3.01407,-4.47048 6.66795,-5.07108 11.00333,-1.80872 5.80294,4.3667 8.95212,13.15334 7.66036,21.37363 -1.36645,8.69574 -5.94484,13.13459 -11.33192,10.98647 z m 272.89631,-40.78462 c -8.59217,-3.42614 -13.06199,-22.05222 -7.33182,-30.5514 3.01409,-4.47046 6.66807,-5.07106 11.00335,-1.8087 5.80297,4.36662 8.95212,13.15333 7.66046,21.37365 -1.36657,8.69573 -5.94485,13.13457 -11.33199,10.98645 z M 172.91814,704.5929 c -3.80436,-0.42567 -8.69618,-8.7502 -9.88091,-16.81457 -1.35867,-9.24823 1.67816,-16.8832 7.03364,-17.68357 6.43696,-0.96198 12.12342,5.85082 13.66103,16.36713 1.6655,11.39136 -2.88343,19.01836 -10.81376,18.13101 z M 1350.2395,493.30128 c -9.974,-0.11727 -31.4087,-4.98811 -31.6826,-7.19944 -0.073,-0.57461 -0.3312,-6.27259 -0.5778,-12.66184 -0.2464,-6.38937 -0.6668,-17.23154 -0.9336,-24.09374 -0.6658,-17.10917 -0.6012,-18.08508 1.214,-18.35637 0.8415,-0.1259 2.5148,0.23851 3.7185,0.80958 5.2244,2.47824 32.2418,5.35547 40.0876,4.2691 10.8136,-1.49726 12.503,-3.6145 11.5909,-14.52798 -0.3831,-4.58324 -0.9632,-7.30056 -1.6157,-7.56604 -0.5601,-0.22787 -8.1541,-1.06815 -16.876,-1.86728 -24.1068,-2.20885 -31.1466,-4.53912 -36.5683,-12.10516 -3.1179,-4.35134 -3.2788,-4.89921 -4.9326,-16.79198 -1.8222,-13.10838 -1.9315,-27.96444 -0.3199,-43.51455 1.1521,-11.11605 2.3112,-13.81943 7.3863,-17.22809 3.8281,-2.571 4.9423,-2.86758 17.7813,-4.73385 10.7179,-1.55792 15.5817,-1.86492 22.3611,-1.41135 9.9697,0.66703 24.8633,2.47611 26.0172,3.16027 0.9431,0.55912 2.3963,35.2207 1.5277,36.44069 -0.3453,0.48528 -3.8874,0.55737 -8.2209,0.16757 -10.4687,-0.94193 -22.8621,-0.33081 -34.2509,1.68892 -9.2535,1.64103 -9.6326,1.78738 -11.0238,4.25893 -1.8349,3.25997 -1.4789,11.52112 0.5724,13.28157 2.192,1.88121 6.367,2.58588 19.9979,3.37555 17.5502,1.01676 20.766,1.65102 24.4362,4.81993 5.9298,5.11988 7.1913,8.71271 10.1639,28.94941 2.8513,19.41405 3.2841,31.10432 1.766,47.76987 -1.9513,21.42142 -4.8973,25.36297 -22.9472,30.70098 -7.0353,2.0805 -10.0815,2.46644 -18.6717,2.36535 z M 842.32207,558.2488 c -0.47685,-1.52543 -2.05106,-7.6595 -3.49868,-13.63132 C 830.23612,509.18754 816.09383,467.1984 794.974,414.42595 781.18406,379.9685 769.41233,348.4994 764.31322,332.46089 c -6.69321,-21.05255 -7.9249,-25.21812 -8.40317,-28.4183 -0.48687,-3.25716 -0.33618,-3.52098 3.04102,-5.32709 3.67785,-1.96681 12.47434,-6.04217 25.39374,-11.7647 4.109,-1.82008 8.00597,-3.19849 8.65987,-3.06313 0.6657,0.13787 2.10892,3.06897 3.28032,6.6628 1.15029,3.5292 2.36669,6.88744 2.70324,7.46282 0.90342,1.54492 3.08215,0.95588 11.74026,-3.17379 14.7185,-7.02049 36.53356,-14.15445 48.96378,-16.01215 5.84869,-0.8741 13.93113,0.92748 23.23297,5.17877 15.56618,7.11432 23.70262,20.16366 38.50533,61.75607 11.7607,33.04523 17.05986,57.47682 16.04908,73.99291 -1.33884,21.87789 -7.74663,33.48352 -21.9885,39.82592 -1.16417,0.51829 -2.93075,1.61734 -3.92578,2.44218 -3.44489,2.85525 -22.34834,11.46686 -26.88532,12.24776 -7.72728,1.33001 -11.38615,-0.48166 -29.04193,-14.37918 -2.53706,-1.99685 -4.85311,-3.31972 -5.14712,-2.93955 -0.29398,0.38004 1.86717,8.23253 4.80251,17.44993 6.82402,21.42853 12.10899,39.8261 16.27847,56.66631 3.87005,15.6315 3.70248,14.72899 3.01041,16.21202 -0.42729,0.91549 -18.56798,8.92763 -29.52544,13.04047 -1.57774,0.59221 -2.0029,0.2701 -2.73489,-2.07216 z m 37.47462,-139.54179 c 10.34047,-3.42122 14.63479,-5.8785 16.2964,-9.32482 2.30603,-4.78246 -4.84996,-37.45208 -10.51226,-47.99255 -3.50256,-6.52024 -5.39381,-8.76754 -10.5316,-12.51471 -15.77261,-11.50355 -32.65329,-5.29406 -52.00424,19.12952 -2.39449,3.02214 -4.47687,6.20663 -4.62738,7.07663 -0.15121,0.87004 1.67831,6.28143 4.06435,12.02534 2.38604,5.7439 6.30161,15.2131 8.70137,21.04258 2.39975,5.82947 5.01154,11.32677 5.80401,12.21607 1.05465,1.18347 3.59909,1.77772 9.48858,2.21628 14.51137,1.08038 20.423,0.39298 33.32077,-3.87434 z M 521.04972,596.87147 c -18.71516,-1.76368 -38.79856,-7.98589 -46.89685,-14.52956 -9.2708,-7.49101 -16.32581,-21.93915 -23.48086,-48.08723 -1.66095,-6.06969 -4.55535,-22.81274 -8.60506,-49.77691 l -6.10234,-40.63075 -4.48211,-1.29409 c -5.24408,-1.51421 -4.67352,0.47907 -6.2316,-21.77076 -1.79126,-25.57968 -2.41863,-39.3064 -1.85358,-40.55714 0.42363,-0.93767 1.19646,-1.04416 3.89978,-0.53738 1.85432,0.34762 3.56344,0.38376 3.79805,0.0804 0.23463,-0.30344 0.007,-8.38655 -0.50585,-17.96244 -1.36178,-25.4278 -1.53564,-32.66813 -0.80714,-33.61032 0.3626,-0.46894 2.25419,0.0408 4.27581,1.15211 1.99405,1.09618 8.55606,3.07651 14.58229,4.4007 6.0262,1.32417 11.57699,2.83314 12.33507,3.35323 1.16681,0.80052 1.55428,3.68786 2.52482,18.81444 0.63054,9.82786 1.75357,22.42611 2.49558,27.99609 l 1.34913,10.12732 5.61979,1.35483 c 3.0909,0.74517 6.00265,1.69869 6.47057,2.1189 1.70273,1.52913 5.5603,45.89607 4.15257,47.75996 -0.36311,0.48079 -2.54603,0.52803 -5.02808,0.10867 -3.16807,-0.53508 -4.66576,-0.44123 -5.39231,0.33798 -2.02831,2.17537 10.13127,75.2708 14.27648,85.82084 0.92099,2.34395 2.73691,5.3771 4.03538,6.74021 4.75377,4.99055 14.74046,6.56982 27.80637,4.39734 4.81615,-0.80079 7.25315,-0.85857 7.85861,-0.18628 0.48269,0.53597 2.69136,13.06895 4.90816,27.85097 l 4.03051,26.87637 -2.43737,0.30484 c -1.34055,0.16775 -7.00867,-0.1259 -12.59581,-0.65241 z m 43.34873,-12.57405 c -3.45214,0.16036 -9.41779,0.46614 -13.25695,0.67964 -5.06159,0.28153 -7.25085,0.0384 -7.96442,-0.88611 -2.4506,-3.1735 -24.61864,-89.34798 -33.35085,-129.64575 -4.35772,-20.11027 -12.62839,-63.0404 -14.30066,-74.22967 -0.99302,-6.64456 0.0141,-7.4318 6.76463,-5.28326 2.67641,0.85194 6.76719,2.03475 9.09055,2.62847 2.32339,0.59368 7.33372,2.15847 11.13409,3.47725 3.8004,1.31879 7.42766,2.48119 8.06059,2.58312 0.83339,0.13415 1.87188,4.17706 3.76516,14.65774 1.56826,8.68143 2.97496,14.46795 3.51556,14.46117 0.49567,-0.009 1.99906,-2.64427 3.34088,-5.86242 3.18946,-7.64925 11.42031,-20.23287 15.38617,-23.52292 1.72479,-1.43087 5.71089,-3.59169 8.85809,-4.80188 5.22393,-2.0088 6.24326,-2.15498 11.70814,-1.67918 9.06986,0.78986 14.29391,5.24963 19.04504,16.25888 5.19723,12.04283 19.71153,58.42645 19.09611,61.02597 -0.18021,0.76161 -0.95967,1.66271 -1.73211,2.00249 -1.84202,0.81027 -15.17954,4.31534 -24.123,6.33936 -8.10865,1.83504 -8.15501,1.80352 -9.44526,-6.42472 -0.94912,-6.05194 -4.23017,-14.1833 -6.41589,-15.89993 -2.28134,-1.79184 -9.08257,-1.04245 -12.60232,1.38856 -1.27433,0.8801 -2.87946,1.91415 -3.56702,2.29797 -4.83664,2.6996 -11.15616,9.15237 -11.34337,11.58243 -0.19097,2.47887 5.28474,30.61513 9.91662,50.95514 2.91952,12.82045 9.01043,36.72869 15.26633,59.92398 4.16215,15.43202 4.26036,17.38127 0.88646,17.59137 -0.8008,0.05 -4.28045,0.22184 -7.73259,0.38212 z M 1280.0384,473.22173 c -1.4818,0.0546 -3.0299,-0.12887 -3.4402,-0.40826 -0.4106,-0.27933 -0.7728,-7.30285 -0.8052,-15.608 -0.1072,-27.67792 -1.3519,-55.44807 -3.042,-67.88085 -2.5222,-18.55377 -5.56,-22.53685 -15.9977,-20.97693 -5.0818,0.75949 -10.9081,3.74457 -11.7711,6.0308 -0.3229,0.85513 -0.1143,10.41645 0.4614,21.24746 1.0645,19.99919 3.1017,69.47213 2.8726,69.75177 -0.069,0.0838 -3.2137,-0.12078 -6.9881,-0.45541 -3.7744,-0.33459 -8.1317,-0.42539 -9.6829,-0.2017 -1.5512,0.22295 -3.0685,0.12413 -3.3719,-0.22121 -0.3036,-0.34532 -0.9003,-5.41654 -1.3257,-11.26945 -1.2169,-16.7393 -11.7726,-114.14773 -14.2294,-131.31147 -0.2784,-1.94488 0.05,-2.38729 1.9777,-2.67559 2.8085,-0.41973 22.0739,4.10493 23.8074,5.59145 0.9,0.77186 1.4482,3.63727 2.0011,10.46332 0.8584,10.59381 1.9526,11.9337 3.9329,4.81545 1.5321,-5.50715 7.1427,-15.25739 10.5141,-18.27144 4.0228,-3.59666 9.9484,-4.70137 15.6312,-2.91414 10.7119,3.36904 17.4785,9.87788 22.7505,21.88372 1.9503,4.44228 2.9831,8.92374 4.7233,20.49816 4.0273,26.77569 8.6608,104.56054 6.3908,107.25505 -0.6729,0.79874 -20.0504,4.49602 -24.4088,4.65727 z M 674.01831,555.0328 c -6.69391,-1.05362 -14.21282,-7.64926 -20.29589,-17.80346 -8.96107,-14.95857 -21.83034,-64.20317 -18.86159,-72.17407 1.52515,-4.09478 6.53319,-9.3265 12.90251,-13.47899 5.80735,-3.78599 25.55165,-14.23428 31.9621,-16.91353 2.1033,-0.87904 7.80728,-3.49114 12.67588,-5.80456 4.86823,-2.31342 11.52452,-5.35111 14.79148,-6.75049 l 5.93992,-2.5444 -0.94779,-5.83163 c -1.60465,-9.87393 -4.69013,-17.77113 -7.72376,-19.76898 -2.54217,-1.6744 -2.96839,-1.67127 -11.84471,0.0876 -6.41977,1.27203 -15.16547,4.03364 -28.88364,9.12042 -10.82175,4.01281 -21.22744,7.789 -23.12379,8.39156 -1.89634,0.60256 -7.09182,2.53918 -11.5458,4.30367 -4.45382,1.76441 -9.69991,3.70279 -11.65797,4.30751 -3.22616,0.99627 -3.63514,0.9226 -4.3636,-0.78565 -0.44204,-1.03672 -2.58174,-10.96634 -4.75501,-22.06588 -2.17311,-11.09945 -4.59344,-22.87741 -5.37853,-26.1732 -0.91692,-3.84891 -1.16061,-6.69952 -0.68144,-7.9694 2.06753,-5.47865 32.79794,-20.13347 63.63458,-30.34621 14.59311,-4.83308 34.12729,-7.8643 40.15971,-6.23175 11.89218,3.21844 28.04107,16.27701 36.88874,29.82967 4.92504,7.54401 5.74178,9.59114 18.9003,47.37278 4.4123,12.66891 8.97145,25.42406 10.1314,28.34477 2.43212,6.12381 12.83957,36.21694 19.24634,55.6504 2.41154,7.31485 4.22557,13.97146 4.03129,14.79265 -0.48865,2.06391 -20.60447,14.90444 -41.76664,26.66072 -11.35206,6.30642 -30.4345,14.51511 -44.59843,19.18479 -9.02331,2.97494 -31.18319,7.17053 -34.83573,6.59564 z m 40.81805,-49.84459 c 10.93248,-5.68695 26.02886,-15.96065 27.14942,-18.47633 0.47581,-1.06825 -0.49619,-4.46606 -3.32392,-11.61992 -2.19789,-5.56051 -5.92658,-15.19242 -8.2857,-21.40417 -4.69961,-12.37395 -4.96425,-12.85438 -6.92179,-12.56184 -2.47517,0.36987 -28.81983,11.28998 -34.31684,14.22455 -2.98932,1.59582 -7.8486,4.19559 -10.79834,5.77732 -2.94975,1.58172 -6.20825,3.92692 -7.24144,5.21154 -1.80016,2.23848 -1.80967,2.65051 -0.22841,9.89321 1.07012,4.90149 3.36594,11.25486 6.53268,18.07875 7.12293,15.34834 9.74299,18.38006 15.77101,18.24826 5.84236,-0.12783 11.32407,-1.99311 21.66333,-7.37137 z m 476.84924,-34.11647 c -15.7793,-1.25112 -55.6645,-8.56312 -68.4339,-12.54558 -5.0876,-1.58663 -5.9283,-2.2042 -8.7166,-6.40302 -3.7872,-5.70284 -7.5348,-13.19236 -11.2928,-22.56823 -5.9709,-14.89777 -16.8118,-82.18052 -17.7987,-110.46831 -0.4728,-13.54864 0.1406,-20.62006 2.0244,-23.32464 3.8052,-5.4642 24.1505,-2.85692 56.8761,7.28873 17.9674,5.57036 21.1845,6.73451 32.0923,11.61339 17.4184,7.79111 19.5035,10.45705 23.8191,30.45246 5.0113,23.22079 7.7698,56.59801 7.0368,85.14798 -0.646,25.1626 -2.2448,38.68822 -4.7884,40.51324 -0.8517,0.61107 -1.6812,1.08211 -1.8432,1.04666 -0.1618,-0.0358 -4.2009,-0.37406 -8.9751,-0.75268 z m -19.5959,-40.19471 c 4.4886,-2.84117 5.288,-8.49785 4.2029,-29.7331 -1.2076,-23.63467 -5.0502,-43.98357 -9.4381,-49.98421 -3.6884,-5.04377 -14.3504,-11.14468 -25.7644,-14.74248 -4.5371,-1.43008 -15.5635,-2.98245 -18.29,-2.57496 -5.3769,0.80358 -5.0454,13.60625 1.3687,52.83092 5.2968,32.39456 5.3402,32.50851 14.7367,38.72232 12.6517,8.36641 25.3205,10.45905 33.1842,5.48151 z m -128.9693,60.63035 c -16.611,0.16159 -33.0844,-2.88275 -40.5987,-7.50296 -4.2862,-2.63533 -8.9157,-8.85005 -13.8798,-18.63276 -9.34,-18.40648 -16.99851,-42.05843 -34.23115,-105.71668 -2.57011,-9.49436 -4.97514,-17.47629 -5.34416,-17.73755 -0.36931,-0.26129 -2.93693,-0.43199 -5.70609,-0.3794 -2.76917,0.0526 -5.24722,-0.0546 -5.50666,-0.23827 -1.33587,-0.94529 -10.76517,-39.72993 -12.52946,-51.53604 l -0.76787,-5.13781 5.26828,-0.21257 c 2.8975,-0.11692 5.42525,-0.57271 5.61704,-1.01286 0.19168,-0.44016 -1.65991,-9.9487 -4.11475,-21.13006 -3.34639,-15.24258 -4.24708,-20.60953 -3.59891,-21.44768 0.64808,-0.83817 2.10097,-0.82739 5.80627,0.0432 2.71825,0.63856 9.0661,1.52639 14.10651,1.97301 13.96306,1.2372 24.07919,2.73959 25.20135,3.74278 0.556,0.49715 2.5985,9.62431 4.5389,20.28257 4.8232,26.49495 3.9873,24.82271 13.2174,26.44509 4.2797,0.75216 7.9063,1.89802 8.3684,2.64399 1.3388,2.16081 5.1247,24.31278 5.5761,32.62755 0.4711,8.67459 1.126,8.01115 -8.0064,8.10708 l -4.8634,0.051 2.1197,9.98069 c 14.4514,68.04878 17.287,78.13995 23.2395,82.69942 3.8931,2.98208 8.3545,3.32175 20.3608,1.5503 l 10.8219,-1.59664 1.5285,10.15724 c 1.6235,10.79218 5.2555,46.35566 5.0712,49.65599 -0.1249,2.2366 0.024,2.2074 -11.6938,2.32133 z m 26.9226,-12.81793 c -5.117,0.60919 -9.6612,0.85458 -10.0984,0.54525 -0.4369,-0.30924 -3.0656,-14.60395 -5.8419,-31.76599 -5.1449,-31.80582 -9.8327,-56.88065 -16.5157,-88.34188 -2.0581,-9.68865 -4.3369,-21.42147 -5.0636,-26.07292 l -1.3211,-8.4573 2.6194,-0.0942 c 4.9141,-0.17683 30.8987,2.40269 32.2887,3.20537 1.0705,0.61814 1.5304,2.47365 2.0205,8.15426 0.3493,4.04468 2.5025,21.29032 4.7849,38.32357 4.5872,34.22993 6.0612,49.33735 7.7415,79.33214 1.0809,19.30016 0.956,24.30963 -0.6024,24.14076 -0.3895,-0.042 -4.8946,0.42168 -10.0117,1.03094 z M 408.64686,514.7962 c -18.17701,-2.9702 -21.6738,-3.71252 -22.26696,-4.72696 -0.33946,-0.58049 -1.08779,-8.11751 -1.66295,-16.74902 -4.13903,-62.11246 -5.54784,-77.4489 -7.86089,-85.57626 -2.60549,-9.15497 -4.71918,-12.20116 -9.31277,-13.42142 -5.32264,-1.4139 -13.59944,0.58252 -16.16367,3.8988 -1.82668,2.36244 -1.87831,3.50044 -1.02532,22.59756 1.05146,23.53953 2.64856,49.61722 3.86441,63.09775 0.47371,5.25188 0.64191,10.03443 0.37381,10.62784 -0.35301,0.78143 -2.32987,0.73507 -7.16757,-0.1681 -3.6741,-0.6858 -7.61751,-1.10693 -8.76318,-0.93565 -4.60566,0.68829 -4.95012,0.2394 -6.19169,-8.06798 -3.3781,-22.60353 -11.25489,-121.38516 -11.19211,-140.35923 l 0.0141,-4.32949 4.05328,-0.47654 c 3.76287,-0.44244 16.02232,1.96007 19.28949,3.78015 1.06299,0.59218 1.47457,2.42252 1.90719,8.48162 0.30341,4.24956 0.53219,9.18988 0.5084,10.97846 -0.0669,5.02068 1.72173,3.75184 3.86377,-2.74112 2.2827,-6.91943 8.23661,-16.95202 11.7252,-19.75748 4.10174,-3.29852 8.78792,-3.5162 15.15619,-0.70398 9.87826,4.36223 16.32731,11.44111 22.03396,24.18581 2.25416,5.03421 3.03768,8.99125 6.9075,34.88485 4.23433,28.33263 13.16045,100.24415 13.79039,111.0997 0.37262,6.42064 0.44348,6.39448 -11.88078,4.38064 z M 298.37494,498.89056 c -1.24447,-0.0196 -7.76599,-0.15877 -14.49226,-0.30845 -6.72629,-0.14963 -19.08772,-0.0491 -27.46984,0.22423 -18.05454,0.58785 -27.56378,0.23253 -28.86569,-1.07852 -4.4007,-4.43163 -10.16278,-16.84316 -12.47874,-26.87924 -2.75728,-11.9487 -5.00777,-56.73278 -4.14635,-82.51251 0.7944,-23.77569 2.53308,-35.47346 5.92452,-39.86021 2.02776,-2.62285 3.37222,-3.34031 9.92352,-5.29535 15.25685,-4.55298 44.57681,-5.45781 59.14404,-1.82523 8.24447,2.05588 12.83012,4.19381 16.18049,7.54361 l 2.70969,2.70921 2.88173,20.0054 c 2.75401,19.11834 3.98626,35.72013 4.42282,59.58686 0.4381,23.94833 -1.33352,57.09932 -3.38019,63.25206 -0.93433,2.80873 -1.47817,3.26406 -4.57573,3.8311 -1.93347,0.35386 -4.53358,0.627 -5.77801,0.60704 z m -22.38795,-35.24574 c 6.42748,-4.38421 7.55404,-11.18101 6.65601,-40.15739 -0.26431,-8.52874 -1.20549,-20.52791 -2.09149,-26.66483 -1.43513,-9.94086 -1.87348,-11.48367 -4.01791,-14.1428 -4.9029,-6.07965 -16.7105,-8.68557 -28.12093,-6.20623 -7.79268,1.69323 -9.72874,2.84659 -10.55816,6.28975 -3.3538,13.92282 -0.48318,70.1549 3.93868,77.15354 1.7256,2.73126 9.53446,6.47287 15.22075,7.29314 6.26437,0.9036 14.76266,-0.69319 18.97305,-3.56518 z m -114.31552,41.84726 c -23.61697,1.40241 -25.65,1.10935 -32.64947,-4.70763 -6.99208,-5.81083 -10.24643,-12.03615 -12.49903,-23.90958 -2.58519,-13.6267 -5.10963,-58.76158 -4.51248,-80.6802 0.67592,-24.80908 7.7787,-38.86006 21.94612,-43.41448 7.85074,-2.52375 22.83192,-4.6316 33.31797,-4.6878 9.70811,-0.0521 29.92752,0.94778 31.41599,1.55352 1.81659,0.73925 3.21486,27.3573 2.38256,45.35495 -0.52851,11.42819 0.83988,10.28048 -14.87777,12.47807 -18.71469,2.61657 -39.9193,7.13061 -42.74503,9.09943 -4.17963,2.91222 -6.68279,15.91858 -5.1008,26.50383 0.88268,5.90627 1.19591,6.63938 3.21395,7.52245 4.87249,2.13195 16.22754,2.31279 34.38512,0.54775 9.86266,-0.95869 18.14227,-1.5944 18.39919,-1.41259 0.42431,0.30031 2.70803,31.31039 3.30408,44.86557 l 0.24561,5.58534 -16.32312,2.54437 c -8.97769,1.39948 -17.93399,2.64018 -19.90288,2.75702 z M 1037.1374,298.62372 c -5.4847,-1.31189 -12.5636,-8.60452 -17.6191,-18.15107 -2.4426,-4.61246 -3.2326,-7.35085 -4.4279,-15.34949 -1.2584,-8.41931 -1.2621,-10.24689 -0.029,-13.51815 3.439,-9.11913 9.7481,-11.91575 17.0435,-7.55503 6.1308,3.66463 10.0403,8.1297 14.4466,16.49902 3.4754,6.6016 4.0161,8.31741 4.6451,14.73899 0.8589,8.7721 -0.9922,16.06446 -5.0793,20.00681 -3.4447,3.323 -5.6257,4.13138 -8.9806,3.3289 z m -169.86888,-61.8223 c -0.3158,-0.54782 -1.60113,-5.12663 -2.85656,-10.17511 -1.25543,-5.04852 -2.51984,-10.1173 -2.80997,-11.26395 l -0.52749,-2.08488 29.50224,-4.98079 c 16.22641,-2.73941 32.42349,-5.82455 35.99374,-6.85586 3.57028,-1.03129 6.97544,-1.96452 7.56706,-2.07385 2.22252,-0.41063 3.11617,-5.57819 1.9717,-11.39952 l -1.10974,-5.64403 -10.5346,2.00716 c -5.79416,1.10393 -20.07344,3.42926 -31.73177,5.16741 -19.70681,2.93816 -21.68318,3.09109 -28.11565,2.17626 -14.27502,-2.03023 -20.67159,-5.67456 -23.8,-13.55927 -1.58159,-3.98616 -1.95067,-6.86216 -2.43139,-18.94791 -0.79741,-20.04443 0.98942,-32.71277 5.42194,-38.44551 5.16312,-6.6774 23.5266,-12.57509 56.89344,-18.27213 l 23.09702,-3.94355 -0.0439,-4.08876 c -0.0247,-2.248782 0.16358,-4.549736 0.41851,-5.113211 0.71769,-1.588562 28.76817,-2.010107 30.5345,-0.458854 1.08648,0.954243 2.78495,11.247375 8.65623,52.456725 6.82233,47.88749 7.25078,51.70573 6.49408,57.88166 -1.01222,8.26348 -2.922,14.22396 -5.63173,17.5779 -2.57337,3.1849 -6.71161,4.65821 -25.86351,9.20797 -18.76367,4.45754 -70.24694,12.3017 -71.09394,10.8321 z m 54.00978,-74.02107 c 3.30634,-1.26226 7.21824,-3.26316 8.69309,-4.44646 l 2.68163,-2.15145 -2.4832,-14.27191 c -1.39615,-8.02469 -2.92994,-14.58816 -3.50386,-14.99433 -1.63502,-1.15717 -15.48512,-1.19978 -26.79671,-0.0825 -13.96822,1.37975 -22.95269,4.196 -26.02358,8.15731 l -2.1928,2.82844 1.75867,8.17798 c 3.0366,14.12052 8.22187,23.14067 13.51073,23.50292 4.12446,0.28247 28.50543,-4.48643 34.35603,-6.72004 z M 603.30452,263.55474 c -5.44966,-0.25537 -6.40202,-1.41332 -8.20804,-9.98046 -2.0391,-9.67315 -1.4284,-12.58516 2.96178,-14.12238 1.71717,-0.60123 7.15086,-1.71492 12.07468,-2.47484 11.65428,-1.79863 12.36886,-1.40721 14.62126,8.0095 1.98074,8.28082 1.65879,12.51426 -1.08681,14.29567 -2.61076,1.69385 -15.89781,4.48174 -20.36287,4.27251 z m 496.42908,-78.67671 c -23.067,1.77475 -30.4357,-1.2474 -37.6055,-15.42309 -3.4439,-6.80919 -7.2559,-21.80943 -9.7115,-38.21673 l -1.4866,-9.94715 -5.2991,0.79197 c -3.5981,0.53775 -5.3812,0.45697 -5.555,-0.25167 -0.5351,-2.18029 -1.8324,-13.23831 -2.4406,-20.80066 l -0.6331,-7.87232 5.3806,-1.059204 5.3805,-1.059156 -1.504,-11.747024 -1.5038,-11.747004 6.9112,-0.401364 c 3.8013,-0.220772 13.1059,-1.092325 20.6768,-1.936801 l 13.7652,-1.535434 2.3395,12.6325 2.3392,12.632484 7.3229,-0.843029 7.3227,-0.843036 0.8277,6.115971 c 0.4552,3.363807 0.6818,8.279867 0.5043,10.924437 l -0.3229,4.80839 -6.5606,1.4132 -6.5604,1.41321 0.2632,5.58623 c 0.4628,9.82159 3.9754,31.65254 5.5754,34.65119 2.5183,4.71935 6.2604,5.35163 17.7786,3.00387 5.301,-1.08051 12.2641,-2.79202 15.4735,-3.80338 3.2093,-1.01136 6.0548,-1.68341 6.3231,-1.4935 0.7158,0.50645 1.9191,27.52983 1.2607,28.30645 -0.9797,1.15533 -29.1706,5.8471 -40.2592,6.70022 z m -430.07961,60.9343 c -5.56505,-0.0123 -18.74309,-3.8106 -23.2581,-6.70316 -8.93153,-5.72218 -12.59745,-12.14767 -14.45703,-25.34064 -1.46096,-10.36547 -0.8971,-18.45432 1.67303,-23.99935 6.49135,-14.0054 26.73306,-24.81787 54.12444,-28.91153 10.60229,-1.58453 23.92557,-2.10575 31.18336,-1.21996 1.73686,0.21196 3.3334,0.15841 3.54793,-0.11888 0.3346,-0.43292 -1.47365,-8.89172 -7.82012,-36.57894 l -1.2781,-5.57694 4.65899,-1.19454 c 9.36426,-2.40084 31.68835,-7.8508 32.88331,-8.02772 1.03998,-0.15437 2.13617,6.42886 7.13629,42.85797 3.24902,23.67197 6.16867,47.8692 6.48783,53.77162 0.3193,5.90243 0.7958,14.00995 1.0587,18.01672 l 0.47824,7.28505 -6.536,1.57603 c -10.33222,2.49136 -84.4828,14.17645 -89.88276,14.1643 z m 52.94936,-33.941 c 8.06329,-2.0932 14.87605,-4.0835 15.13944,-4.42288 0.72372,-0.9328 -1.27179,-17.10757 -2.74965,-22.28648 l -1.29853,-4.55048 -27.46855,4.4702 c -30.48021,4.9603 -31.57301,5.31612 -33.50239,10.90864 -0.65024,1.88492 -0.81499,5.114 -0.40196,7.88286 0.71988,4.82862 4.24774,13.87509 5.85467,15.01449 2.81224,1.99395 20.44479,-0.79077 44.42697,-7.01635 z m 574.12045,-61.46627 c -0.2305,-0.16387 -2.3778,-13.40376 -4.7717,-29.42199 -2.8864,-19.31298 -6.4621,-39.031246 -10.6153,-58.533672 -3.4444,-16.175303 -5.9788,-29.734607 -5.6318,-30.131801 0.347,-0.397174 8.8773,-2.633827 18.9567,-4.970323 10.079,-2.336517 18.5724,-4.446809 18.8744,-4.689588 1.2887,-1.036304 1.7323,1.659495 2.5988,15.791095 0.5035,8.21833 1.327,20.333418 1.8294,26.922472 0.5026,6.589048 1.3252,17.565794 1.8283,24.392786 0.5027,6.826971 1.7188,21.813911 2.7022,33.304281 0.9834,11.49032 1.466,21.30791 1.0725,21.8168 -0.6988,0.90389 -26.0141,6.10955 -26.8435,5.51994 z m -509.59927,44.28186 c -2.80327,-16.59846 -5.81561,-33.22634 -6.69426,-36.95088 l -1.5976,-6.77184 3.3554,-1.02868 c 1.84551,-0.56576 10.5919,-2.38083 19.43624,-4.03353 l 16.08084,-3.00485 -0.16002,2.10488 c -0.0879,1.1577 0.44276,9.02525 1.17895,17.48344 1.89705,21.80034 2.06374,31.0476 0.94564,52.49162 -0.0739,1.40167 -0.89746,2.89381 -1.92204,3.47844 -1.48434,0.84705 -19.902,5.56968 -24.26279,6.22142 -1.06255,0.15879 -2.07728,-4.6253 -6.36088,-29.99003 z M 989.7291,167.00389 c -2.6042,-15.20015 -5.6184,-31.82744 -6.6982,-36.94957 l -1.9637,-9.31285 3.3607,-1.02627 c 1.8483,-0.56444 10.4293,-2.35546 19.0688,-3.98005 l 15.7082,-2.95383 1.0839,11.44007 c 1.8143,19.15902 2.5541,38.29464 1.9704,50.97783 -0.4732,10.28607 -0.8125,12.20476 -2.3081,13.05636 -1.455,0.82839 -19.9324,5.55478 -24.2225,6.19594 -1.0596,0.15845 -2.0323,-4.2911 -5.9995,-27.44763 z m 168.624,-8.03456 c -6.318,0.27137 -10.7775,-1.38048 -15.2209,-5.63798 -3.2746,-3.13787 -5.3015,-10.50452 -5.5711,-20.2485 -0.3799,-13.72906 0.6855,-15.80999 10.0851,-19.70453 6.6305,-2.74721 30.1384,-8.1891 53.959,-12.4911 18.8031,-3.39583 19.1355,-3.48886 19.3435,-5.41058 0.116,-1.07543 -0.1373,-3.421122 -0.5638,-5.212692 -0.6163,-2.588925 -1.3028,-3.409242 -3.3452,-3.997539 -4.5231,-1.302939 -30.4902,1.713749 -59.7062,6.936271 -14.9685,2.67571 -27.4429,4.77358 -27.721,4.66191 -0.2779,-0.11165 -0.9714,-5.828317 -1.5416,-12.703569 -0.9653,-11.639176 -0.9142,-12.546367 0.7407,-13.166357 9.3622,-3.507026 28.5825,-7.539137 53.9087,-11.309224 42.9717,-6.396751 54.0783,-5.802003 68.4473,3.66524 5.9052,3.890939 10.0196,8.728015 11.3721,13.370451 1.224,4.200169 4.4269,35.577109 5.2115,51.052779 l 0.5483,10.81173 -20.1841,4.57322 c -21.543,4.88118 -78.8928,14.3437 -89.7623,14.81047 z m 51.5536,-25.11985 c 6.4845,-1.46914 13.258,-3.11978 15.0525,-3.66816 l 3.2631,-0.99701 -1.8428,-10.64481 -1.8425,-10.6448 -12.8426,1.66843 c -13.1957,1.71434 -37.1084,6.48362 -39.6306,7.90413 -2.3307,1.31274 -2.7088,6.04849 -0.9187,11.50719 2.0125,6.13678 3.7934,9.17564 5.5961,9.54877 5.2621,1.08937 11.7872,0.16988 33.1655,-4.67374 z M 104.48181,315.42631 c -0.29742,-0.61111 -2.70571,-8.3821 -5.35177,-17.26882 -2.64605,-8.88677 -6.26245,-20.61439 -8.03647,-26.06141 -5.72927,-17.59148 -12.44132,-37.91087 -14.06412,-42.57634 -0.5702,-1.63928 -0.72362,-3.22405 -0.34093,-3.52168 0.38269,-0.29762 8.82861,-2.03378 18.76874,-3.85817 l 18.07295,-3.31702 2.64913,6.82189 c 1.45704,3.75204 3.49398,8.83769 4.52657,11.30142 1.03258,2.46375 3.24607,7.97489 4.91885,12.24698 5.94825,15.19097 7.60746,18.85043 8.19623,18.07698 0.32794,-0.43084 3.5889,-9.29683 7.24656,-19.70224 3.65763,-10.40539 7.44899,-20.80596 8.42516,-23.11237 l 1.77488,-4.19345 9.96428,-1.48917 c 6.93433,-1.03634 10.26799,-1.2056 10.96305,-0.55659 0.87092,0.8132 2.52481,3.35208 7.57816,11.63316 7.02118,11.50587 19.64445,30.35803 20.41077,30.48241 1.85906,0.30176 6.41173,-23.40116 8.63649,-44.96486 l 1.38521,-13.42616 13.56599,-2.03071 13.566,-2.03071 -0.10849,3.26178 c -0.0596,1.79394 -1.34731,20.9727 -2.86139,42.61946 -1.51406,21.64676 -2.90948,41.61919 -3.10089,44.3832 -0.19142,2.76398 -0.54583,5.28122 -0.78755,5.59386 -0.24173,0.31263 -8.85879,1.89395 -19.14899,3.51398 l -18.7095,2.94558 -2.90272,-5.62452 c -1.59651,-3.09346 -4.19227,-8.35274 -5.76838,-11.68727 -1.57609,-3.33455 -3.34624,-6.96463 -3.93365,-8.06687 -0.58744,-1.10224 -2.34997,-4.73346 -3.91675,-8.06935 -3.91708,-8.34005 -3.77637,-8.09389 -4.54288,-7.94579 -0.37713,0.0727 -3.35299,5.39343 -6.613,11.82344 -3.26001,6.43002 -8.81953,17.29849 -12.35449,24.15218 l -6.42718,12.46123 -15.57971,3.40371 c -8.56883,1.87205 -17.82508,3.96406 -20.56947,4.64894 -3.81178,0.95126 -5.11742,0.98294 -5.53053,0.13418 z m 164.93388,-26.38299 c -0.5302,-1.52695 -1.93012,-6.33181 -3.11088,-10.67745 -1.1808,-4.34564 -2.78905,-9.75249 -3.57397,-12.01524 -0.78493,-2.26272 -3.0789,-9.31968 -5.09776,-15.68213 -2.01882,-6.36243 -6.17768,-19.08305 -9.24192,-28.26809 -3.06421,-9.18499 -5.73364,-17.78611 -5.93204,-19.11363 l -0.36071,-2.41365 18.08627,-3.3303 c 9.94748,-1.83167 18.34564,-3.14675 18.66263,-2.92243 0.31699,0.22435 2.74797,5.83295 5.40216,12.46361 2.6542,6.63066 6.44404,16.09535 8.42187,21.03264 1.97784,4.93731 3.66391,9.43089 3.74683,9.98575 0.083,0.55486 0.74509,2.0164 1.47147,3.24786 1.28768,2.18304 1.40719,1.9881 4.78264,-7.79859 1.90409,-5.52071 5.78738,-16.32448 8.62955,-24.0084 l 5.1676,-13.97076 10.36925,-1.5497 10.36926,-1.54969 3.88209,6.12723 c 3.31933,5.23899 15.89299,24.73058 22.14545,34.32965 1.05667,1.62227 2.35544,2.88866 2.88613,2.81417 0.53078,-0.074 2.11645,-6.2468 3.52388,-13.71631 2.17831,-11.5606 3.34762,-19.87541 5.8465,-41.57335 l 0.38294,-3.32506 13.4608,-1.77305 c 11.34842,-1.49481 13.46653,-1.57018 13.49739,-0.48031 0.0605,2.13745 -1.85702,30.7343 -4.33791,64.69337 -1.27232,17.41575 -1.44123,19.8228 -1.72505,24.58548 l -0.2919,4.89811 -8.39763,1.80526 c -4.61871,0.99292 -13.24872,2.53231 -19.17776,3.42087 l -10.78014,1.6155 -3.85928,-7.86161 c -2.1226,-4.32388 -6.59206,-13.48987 -9.93208,-20.36886 -3.34003,-6.87898 -6.42963,-12.77199 -6.86574,-13.09559 -0.733,-0.54385 -3.86416,5.19485 -19.86714,36.41223 l -5.93083,11.56936 -15.31667,3.33529 c -8.4242,1.83441 -17.71399,3.91999 -20.644,4.63468 l -5.32733,1.29935 -0.96399,-2.7763 z m 167.09405,-23.73489 c -0.37454,-0.80281 -1.31228,-3.8968 -2.08388,-6.87559 -2.11022,-8.14641 -10.52146,-34.75617 -20.37608,-64.46171 -3.08433,-9.29726 -5.38116,-17.18692 -5.10407,-17.5326 0.55558,-0.69308 36.94372,-7.51913 37.02933,-6.94634 0.0294,0.19628 2.32519,6.0247 5.1019,12.95205 2.77669,6.92733 7.00756,17.51237 9.40194,23.52227 2.39437,6.00991 4.64741,11.26161 5.00675,11.67048 0.35932,0.40885 4.43251,-9.88869 9.05148,-22.88342 l 8.3982,-23.62683 10.52327,-1.57271 10.52328,-1.57272 1.96626,2.73529 c 1.08143,1.50443 7.36009,11.19357 13.95259,21.53143 6.5925,10.33788 12.35626,18.61393 12.80835,18.39131 1.77167,-0.87253 6.44696,-25.63375 8.44995,-44.7523 l 1.3817,-13.1886 13.43452,-2.24725 13.43449,-2.24727 -0.0206,4.13711 c -0.0105,2.27539 -1.27203,21.65532 -2.80206,43.06644 -1.53005,21.41115 -2.92005,41.09205 -3.08885,43.73535 l -0.30694,4.80596 -6.10294,1.45368 c -3.3566,0.79954 -11.90963,2.3699 -19.00668,3.48971 l -12.90375,2.03597 -1.27251,-2.18989 c -0.69992,-1.20442 -2.56819,-4.91723 -4.15175,-8.25061 -5.59371,-11.77477 -6.75626,-14.17139 -8.41614,-17.3499 -0.92234,-1.76621 -2.71436,-5.39302 -3.98226,-8.05959 -1.26792,-2.66656 -2.65475,-5.132 -3.08184,-5.47874 -0.4271,-0.34675 -2.37844,2.47638 -4.33633,6.27362 -1.95788,3.79727 -7.59013,14.71151 -12.51615,24.25393 l -8.95637,17.34977 -12.19029,2.77272 c -30.00304,6.82425 -29.0194,6.65706 -29.76495,5.05898 z M 785.60992,133.96532 c -8.77099,-1.05858 -15.17901,-7.24358 -15.66853,-15.12332 -0.93927,-15.11695 19.2351,-21.92756 31.37872,-10.59305 5.79312,5.40723 5.79681,12.4616 0.0175,19.02245 -2.23357,2.53206 -9.9698,7.08374 -12.03108,7.07845 -0.28238,-6.2e-4 -1.94223,-0.17373 -3.68859,-0.38453 z M 987.9425,103.74829 c -8.5754,-1.04118 -14.6344,-6.43227 -15.7703,-14.031797 -1.5306,-10.241584 7.9557,-18.607553 19.4784,-17.178204 14.4766,1.795784 20.7296,14.523335 11.998,24.421991 -2.292,2.59862 -10.0161,7.16944 -12.1063,7.16412 -0.2825,-7e-4 -1.9022,-0.17005 -3.5998,-0.37608 z"
       id="path3425"
       inkscape:connector-curvature="0" />
    <path
       inkscape:connector-curvature="0"
       id="path3074"
       d="m 431.63142,782.30974 c -0.62279,-2.40601 -1.90222,-8.19165 -2.84314,-12.85704 -0.94092,-4.66539 -1.90913,-8.99105 -2.15161,-9.61262 -0.35424,-0.90814 3.08574,-1.86595 17.50866,-4.8749 18.52749,-3.86521 24.74884,-5.65757 26.21378,-7.55208 0.99461,-1.28642 0.56363,-13.57358 -0.5698,-16.24345 -0.91481,-2.155 -1.92767,-2.06554 -17.53181,1.54875 -17.46607,4.04542 -25.72753,3.18148 -33.80791,-3.53561 -3.43339,-2.8542 -5.19614,-6.11782 -7.84617,-14.52716 -2.05686,-6.52697 -4.37376,-42.97319 -3.42622,-53.89634 0.90561,-10.43968 2.70416,-12.85367 13.49936,-18.1187 5.63592,-2.74871 8.82301,-3.64589 20.92479,-5.89028 l 14.2762,-2.64756 -0.31913,-2.19951 c -0.17551,-1.20974 -0.28526,-3.70082 -0.24431,-5.53569 l 0.0745,-3.33594 3.70304,-0.0179 c 2.03667,-0.0105 6.19345,0.33443 9.23732,0.76482 l 5.53428,0.78271 8.717,56.56523 c 8.47301,54.98183 9.76203,66.12892 9.08677,78.57959 -0.37088,6.8388 -2.70746,12.94002 -5.54774,14.4861 -6.42946,3.49987 -25.40079,8.31415 -43.31118,10.99082 l -10.04467,1.50126 -1.13236,-4.37456 z m 20.39937,-73.31527 c 3.55211,-1.21567 7.5654,-2.98161 8.91842,-3.9244 4.75311,-3.31177 4.87603,-4.41379 2.36001,-21.15835 -1.26135,-8.39278 -2.63244,-16.0169 -3.04743,-16.94246 -0.94194,-2.10081 -5.45195,-3.02539 -14.43889,-2.96012 -7.66888,0.0555 -14.85223,2.18446 -17.08034,5.06163 -2.39131,3.08778 2.26702,30.39751 6.52288,38.24081 1.32795,2.44728 5.77899,4.50913 8.83625,4.0932 0.80888,-0.11014 4.377,-1.19469 7.9291,-2.41031 z m 571.63751,-26.72395 c -2.7109,-0.36566 -4.0958,-3.90895 -5.6851,-14.54423 -1.9217,-12.85675 -1.7178,-13.25153 7.5575,-14.63779 5.327,-0.79617 6.4816,-0.70962 7.4614,0.559 0.6374,0.82546 1.9292,6.65529 2.8709,12.95529 1.6056,10.74517 1.6063,11.53007 0.018,12.67487 -1.8775,1.34704 -9.8808,3.30791 -12.2156,2.99289 z m 199.7269,-30.87498 c -2.5634,-1.81415 -4.5183,-8.29684 -5.3524,-17.74801 -0.7479,-8.47295 -0.093,-9.31482 8.2181,-10.55686 8.1987,-1.22533 8.3624,-1.02433 10.4312,12.81848 1.9972,13.36298 1.8217,13.82164 -5.9984,15.69438 -4.4901,1.07528 -5.5269,1.04574 -7.2985,-0.20799 z m 156.9166,-32.15659 c -1.7133,-1.09994 -3.8732,-3.01653 -4.7999,-4.2591 -1.5967,-2.14108 -5.9563,-13.21477 -12.0348,-30.57123 -1.5053,-4.29711 -3.0735,-8.08393 -3.4853,-8.41513 -0.4119,-0.3312 -2.5373,2.04231 -4.7233,5.27431 l -3.9747,5.87654 2.0535,16.76146 2.0536,16.76154 -4.7588,1.38617 c -17.6731,5.14803 -16.5848,5.2518 -16.9035,-1.61065 -0.3503,-7.53782 -14.772,-113.44776 -16.5289,-121.38366 -1.1826,-5.34239 -1.4111,-7.85393 -0.7622,-8.38201 1.0781,-0.87754 14.1027,-1.08079 16.5533,-0.25833 1.5417,0.51736 2.0335,3.03436 6.7197,34.39104 2.781,18.60811 5.3979,33.7818 5.8156,33.71936 1.1182,-0.16702 15.2192,-21.46928 20.2627,-30.61094 7.2203,-13.08707 5.7633,-11.73396 12.5121,-11.61897 3.243,0.0555 7.4545,-0.1264 9.3586,-0.40362 4.0335,-0.58749 6.271,0.11695 5.862,1.84498 -0.1583,0.6717 -4.5606,8.41401 -9.7811,17.20508 -12.7862,21.53029 -11.939,19.32366 -9.8039,25.5388 2.8478,8.28851 8.764,22.09642 10.6322,24.81407 2.2607,3.28862 7.9967,4.63888 13.1484,3.09529 l 3.6978,-1.10798 2.068,13.83725 2.068,13.83726 -10.5988,3.08734 c -5.8296,1.69798 -10.8095,3.11064 -11.0672,3.13923 -0.2574,0.0289 -1.87,-0.84805 -3.5831,-1.9481 z M 178.17458,796.27989 c -0.22806,-0.26318 -3.53048,-19.32615 -7.33875,-42.36233 l -6.92409,-41.88396 9.95942,-2.49247 c 5.47768,-1.37087 10.65774,-2.59692 11.51121,-2.72442 1.43048,-0.21379 1.6389,0.6515 2.66611,11.06905 3.26385,33.10053 5.36965,58.30502 5.47941,65.58296 l 0.12343,8.18033 -3.43725,1.1378 c -1.89049,0.62579 -5.27947,1.77532 -7.53104,2.55462 -2.25156,0.77928 -4.28036,1.20156 -4.50839,0.93842 z m 329.54825,-49.08361 c -0.3,-0.3446 -3.4974,-19.45977 -7.10533,-42.47806 l -6.55984,-41.85145 3.88219,-1.13245 c 2.13521,-0.62286 7.14609,-1.90551 11.13525,-2.85035 l 7.25309,-1.718 2.08492,17.7423 c 2.47251,21.0403 5.65799,64.23084 4.88928,66.29145 -0.34035,0.91236 -2.86627,2.21251 -6.82773,3.51446 -3.45816,1.1364 -6.71929,2.30081 -7.24694,2.58747 -0.52766,0.28663 -1.20482,0.23941 -1.50489,-0.10529 z M 780.61626,706.4121 c -0.30153,-0.34442 -3.49306,-19.46127 -7.09214,-42.48198 l -6.54375,-41.85575 3.86898,-1.12851 c 2.12793,-0.62069 7.12998,-1.90097 11.11572,-2.84499 l 7.24654,-1.71648 2.14639,18.16529 c 1.88191,15.92609 3.89114,39.49322 4.98076,58.41886 0.19026,3.30364 0.1143,6.65647 -0.16703,7.45067 -0.32564,0.91645 -2.80996,2.19886 -6.80065,3.51034 -3.45807,1.1364 -6.71921,2.30083 -7.24689,2.58747 -0.52767,0.28663 -1.20618,0.23962 -1.50774,-0.10497 z m -70.4008,6.69297 c -0.40598,-1.07914 -2.13337,-9.73764 -3.83857,-19.24096 -1.70504,-9.50344 -4.59429,-24.65013 -6.42066,-33.65944 -8.76678,-43.25036 -10.99141,-54.826 -10.62726,-55.29706 0.69575,-0.89975 21.39922,0.51015 24.04108,1.63716 0.8083,0.34487 1.57704,2.93671 2.3331,7.86759 l 1.12758,7.35325 1.52832,-2.82481 c 2.67792,-4.94919 8.53628,-11.90389 12.08895,-14.35108 2.59651,-1.78842 5.07081,-2.61934 10.09255,-3.38916 6.1847,-0.94809 6.85918,-0.87362 9.58879,1.05815 1.70962,1.20987 3.7904,3.91727 4.98079,6.48099 2.30497,4.9632 7.26182,29.52169 6.13388,30.38958 -0.39177,0.30146 -4.94509,1.45161 -10.11824,2.55594 l -9.40609,2.00792 -0.62227,-4.07585 c -0.34207,-2.24177 -1.27865,-4.95143 -2.08078,-6.02157 -1.25983,-1.68109 -1.96862,-1.83664 -5.21076,-1.14344 -4.27078,0.91307 -13.06358,6.69951 -13.66018,8.98962 -0.21839,0.83848 1.64894,16.66894 4.14962,35.17873 5.24312,38.80885 6.03558,34.08844 -6.18311,36.83664 -7.0403,1.58342 -7.17041,1.57762 -7.89658,-0.3522 z m 159.88515,-23.92239 c -0.47158,-1.05422 -1.06855,-3.29137 -1.3263,-4.9715 -0.25812,-1.67999 -0.98765,-4.79076 -1.62169,-6.91263 l -1.15292,-3.85808 -2.30006,4.71746 c -4.59958,9.43456 -10.48905,13.7987 -20.64279,15.29645 -10.34595,1.52614 -22.19873,-1.11584 -26.92666,-6.0019 -4.78016,-4.93981 -8.73004,-23.13099 -12.20305,-56.2011 -1.37799,-13.12232 -2.65736,-26.73331 -2.84267,-30.2467 -0.33284,-6.30632 -0.30191,-6.4023 2.4133,-7.5219 3.19309,-1.3167 13.57541,-1.49083 14.66941,-0.24605 0.40338,0.45892 2.32293,9.6273 4.26551,20.37416 5.41281,29.94248 6.66788,35.04597 9.03019,36.71779 1.78257,1.26149 2.76689,1.24202 9.08431,-0.17966 3.89696,-0.87709 8.51959,-2.33841 10.27279,-3.24757 6.26805,-3.2504 6.18328,-1.93621 2.02153,-31.37032 -2.56133,-18.11341 -3.45439,-26.62553 -2.84583,-27.12096 1.37272,-1.11718 18.37984,-4.62405 19.22665,-3.96442 0.91502,0.71259 6.92037,30.51324 14.33043,71.1125 4.06206,22.25581 5.28779,30.47844 4.66361,31.28569 -0.46578,0.60228 -4.53926,1.80619 -9.05232,2.67532 -8.01967,1.54446 -8.22523,1.53678 -9.06341,-0.33658 z m 431.67629,-71.22366 c -1.0517,-4.65566 -2.2142,-8.41979 -2.5831,-8.36459 -0.3687,0.0554 -0.9806,1.1195 -1.3597,2.36528 -1.2162,3.9971 -6.7869,10.94333 -10.7117,13.35674 -8.0133,4.92723 -22.6115,5.05003 -33.253,0.27987 -7.0293,-3.15102 -8.4808,-6.54044 -12.423,-29.00836 -2.8563,-16.28047 -6.2837,-46.16608 -7.0395,-61.38404 -0.2826,-5.68596 -0.2736,-5.7083 2.6478,-6.62049 3.5247,-1.10072 12.7012,-1.15478 14.2164,-0.0837 0.6797,0.48034 2.4782,8.69527 4.8205,22.01882 5.1412,29.24194 6.4034,33.99403 9.375,35.29428 3.2683,1.43 14.989,-1.31446 20.2385,-4.73889 l 3.8161,-2.48933 -0.3345,-6.8738 c -0.1841,-3.78053 -1.9191,-15.85661 -3.8559,-26.83565 -3.3115,-18.771 -3.4323,-20.0239 -2.0258,-21.00246 0.8223,-0.57229 5.5002,-1.90138 10.3944,-2.95354 l 8.8992,-1.913 1.1774,4.40277 c 4.1937,15.68157 18.8282,97.58246 17.6979,99.04426 -0.3031,0.39203 -4.4287,1.44574 -9.168,2.34164 l -8.6166,1.62895 -1.9123,-8.46481 z M 253.78288,757.85937 c -5.53251,-31.93976 -8.79104,-41.98003 -13.76639,-42.41767 -2.91433,-0.25646 -9.42067,3.39169 -12.00113,6.72898 -2.35619,3.04724 -2.28521,4.97051 1.38419,37.50134 1.01232,8.9747 1.63322,16.77673 1.37974,17.3378 -0.65088,1.4407 -11.16892,3.79938 -14.13066,3.16876 l -2.46172,-0.52416 -2.80107,-15.00125 c -4.29901,-23.02339 -10.8224,-56.80965 -13.07283,-67.70752 l -2.02368,-9.7998 3.51624,-1.49053 c 1.93394,-0.81983 7.2102,-1.93068 11.72503,-2.46859 l 8.2088,-0.9779 0.84662,7.66273 0.84663,7.66274 3.89568,-5.14627 c 4.91649,-6.49473 8.97711,-9.32697 14.5707,-10.16295 5.1868,-0.77511 7.89995,0.46585 12.88298,5.89277 1.90884,2.07893 3.70092,3.73976 3.98241,3.69091 0.28158,-0.0482 1.29604,-2.08953 2.25455,-4.53466 2.10909,-5.38022 7.61803,-10.45362 13.15135,-12.11159 2.1544,-0.64552 6.69879,-1.36358 10.09866,-1.59573 6.9613,-0.47524 11.28858,1.30035 14.74381,6.04996 5.48526,7.54005 13.19223,40.09033 16.60946,70.15005 1.69205,14.88399 1.69098,15.57605 -0.0252,16.18666 -3.08582,1.0979 -13.1056,4.14906 -14.12609,4.30159 -0.69346,0.10371 -1.5499,-4.68844 -2.97543,-16.6484 -2.27983,-19.12709 -7.53494,-44.42676 -10.06868,-48.47344 -1.95618,-3.12431 -5.55613,-3.61686 -12.62098,-1.72691 -5.71637,1.52922 -8.83757,4.53888 -9.40967,9.07327 -0.26329,2.08706 1.24492,16.69413 3.58173,34.68932 l 4.03653,31.08421 -7.12195,1.31374 -7.122,1.31375 -3.98766,-23.02119 z m 692.05797,-81.21321 c -0.41477,-0.70928 -2.10875,-10.30503 -3.76435,-21.32398 -4.92557,-32.78184 -8.77404,-43.83894 -14.93805,-42.91764 -2.77892,0.41531 -10.36007,5.77901 -11.42349,8.08206 -1.2294,2.66229 -0.85102,9.38473 1.87823,33.38468 1.26511,11.12282 2.07445,20.51488 1.79915,20.87117 -0.64691,0.83661 -15.12329,3.13619 -15.97292,2.53737 -0.35484,-0.25002 -2.69198,-11.58466 -5.19387,-25.18804 -2.50191,-13.60339 -5.93607,-31.34175 -7.63162,-39.41847 -1.69555,-8.07679 -3.55778,-17.81222 -4.13856,-21.63412 l -1.0557,-6.94898 3.39337,-1.43857 c 1.86627,-0.79109 7.08723,-1.87855 11.60207,-2.41639 l 8.20885,-0.97786 0.83187,7.66486 0.83185,7.66497 4.02443,-5.37745 c 5.25892,-7.02712 8.0146,-8.9712 13.97981,-9.86266 5.48397,-0.81957 8.54789,0.59248 13.82649,6.37196 1.62575,1.78013 3.20049,3.19548 3.49945,3.14538 0.29887,-0.0499 1.08294,-1.74531 1.74231,-3.76707 1.55235,-4.76102 6.09818,-10.01903 10.1947,-11.79218 4.10599,-1.77728 13.70194,-3.2329 18.07444,-2.74166 5.0509,0.5673 9.938,4.88095 12.6136,11.13344 4.62899,10.8167 8.22319,26.5006 12.25449,53.47672 2.9645,19.83545 3.6611,26.29927 2.9162,27.06383 -0.5382,0.55249 -2.7334,1.49491 -4.8785,2.09436 -2.1451,0.59944 -5.5603,1.60288 -7.5894,2.22974 l -3.68909,1.13986 -1.6918,-15.22617 c -1.6884,-15.19796 -6.8857,-41.51704 -9.4253,-47.72923 -2.0331,-4.97374 -3.6022,-5.61916 -10.9158,-4.49047 -8.00781,1.23559 -11.28782,3.39068 -12.13706,7.97366 -0.40902,2.20698 0.77143,13.73539 3.60194,35.1776 l 4.2105,31.89476 -7.14216,1.31705 c -5.92678,1.0929 -7.2703,1.09773 -7.89628,0.0276 z m -602.05361,83.13703 c -7.58643,0.11781 -8.77463,-0.0986 -10.92081,-1.98997 -5.44277,-4.79623 -8.55066,-14.96498 -9.34398,-30.57273 -0.64944,-12.77658 -0.0222,-16.16191 3.44142,-18.57526 4.94892,-3.44827 21.56496,-8.3972 39.86509,-11.87352 l 4.82878,-0.91736 -0.65259,-6.13576 -0.6526,-6.13575 -3.13558,-1.08737 c -2.8067,-0.97324 -5.65889,-0.70625 -27.19613,2.54638 l -24.06055,3.63375 -1.98273,-13.26674 c -1.43306,-9.58888 -1.71244,-13.55169 -1.00772,-14.29445 0.53626,-0.56533 2.60122,-1.70056 4.58884,-2.52282 1.98762,-0.82215 5.23364,-2.16945 7.21342,-2.99402 5.77081,-2.40325 37.08014,-6.84255 42.67362,-6.05059 9.27527,1.31337 14.93075,4.51807 20.47196,11.60046 6.80667,8.69992 6.86154,8.91381 11.59986,45.23535 2.37696,18.22076 4.29646,34.88506 4.26554,37.03167 -0.055,3.8235 -0.12748,3.91808 -3.55739,4.64137 -1.9257,0.40611 -5.63015,1.44573 -8.23217,2.3103 -2.60202,0.86447 -10.63622,2.83785 -17.85378,4.38526 -7.21752,1.54742 -15.08412,3.28283 -17.48131,3.85658 -2.39719,0.57362 -8.18923,1.10252 -12.87118,1.1753 z m 20.83813,-22.68737 c 3.13937,-0.97494 7.70963,-2.65157 10.15619,-3.72572 l 4.44827,-1.95321 -1.69412,-11.3354 c -1.17342,-7.85154 -2.04576,-11.47848 -2.83831,-11.80103 -1.49059,-0.60661 -18.40233,1.91522 -24.6838,3.68013 -7.74655,2.17731 -8.05107,2.76033 -6.52233,12.48743 2.48081,15.78509 5.40146,17.5329 21.13398,12.64712 z m 267.38358,-20.30376 c -4.50725,0.11464 -8.90162,-0.19958 -9.76513,-0.69823 -0.86352,-0.49871 -2.73822,-2.55049 -4.16597,-4.55968 -2.19157,-3.08411 -2.90526,-5.35896 -4.58252,-14.60724 -2.23078,-12.30038 -2.82315,-25.13357 -1.29465,-28.05047 2.71078,-5.17313 15.80954,-9.7796 43.40522,-15.26455 l 3.92984,-0.78117 0.10202,-4.30252 c 0.13187,-5.52442 -0.86088,-7.74417 -4.09197,-9.15424 -2.3324,-1.01791 -5.17153,-0.74993 -27.2428,2.57138 l -24.63889,3.70776 -1.53818,-13.35996 c -0.84593,-7.34797 -1.35005,-13.77646 -1.12005,-14.28554 0.22999,-0.50916 4.14365,-2.34216 8.69697,-4.07346 6.84742,-2.60362 11.03396,-3.56517 24.21516,-5.56148 17.03752,-2.58062 23.33126,-2.62026 29.36632,-0.18539 5.07362,2.04697 10.37668,6.60388 14.64711,12.58604 l 3.83173,5.36762 5.45938,37.35438 c 3.84512,26.30754 5.23995,37.93658 4.71668,39.32329 -0.5966,1.58044 -1.56402,2.09571 -4.90413,2.61138 -2.28842,0.35346 -5.69657,1.24051 -7.57375,1.9714 -1.87719,0.73083 -9.31627,2.60811 -16.53132,4.17171 -7.21524,1.56357 -15.28011,3.33057 -17.92233,3.92662 -2.64222,0.59616 -8.49179,1.17761 -12.99903,1.29232 z m 20.82199,-22.84214 c 3.45068,-1.06182 7.99382,-2.65791 10.09554,-3.5468 l 3.8215,-1.61623 -1.75761,-11.75969 -1.75743,-11.75958 -5.39608,0.141 c -5.22344,0.13662 -22.29736,3.75244 -25.1868,5.33407 -2.62007,1.4341 -2.74439,6.98148 -0.33953,15.14832 2.69515,9.15282 2.98825,9.64931 6.04226,10.23448 3.39689,0.6507 7.10253,0.0939 14.47815,-2.17557 z m 403.18966,-42.76344 c -5.929,-2.06979 -11.2903,-7.12041 -14.0944,-13.27781 -2.1954,-4.82115 -3.0116,-8.85494 -6.5938,-32.58637 -3.5101,-23.2451 -3.9729,-27.77613 -3.2743,-31.96592 1.1962,-7.17252 4.2955,-13.11393 8.5736,-16.43528 6.8139,-5.29028 27.5609,-9.91185 49.1745,-10.95402 5.5233,-0.26637 10.5626,-0.11535 11.1984,0.33573 1.6411,1.16463 5.5945,31.8647 4.3159,33.5167 -0.5139,0.664 -4.8948,2.07506 -9.9063,3.19063 -8.3043,1.84854 -26.627,6.83453 -30.6112,8.32982 -0.9403,0.35289 -2.7975,1.03698 -4.1271,1.52016 -3.5074,1.27447 -5.073,7.30333 -4.0257,15.50202 1.1255,8.81001 1.0014,8.77029 18.9651,6.08559 7.9022,-1.18096 17.3157,-3.02691 20.9191,-4.10211 3.6035,-1.07515 6.8746,-1.7272 7.2693,-1.44877 0.3945,0.27835 1.8904,7.46343 3.324,15.96681 l 2.6068,15.46068 -5.8982,1.78477 c -14.2681,4.31751 -19.6422,5.66053 -31.6189,7.90204 -11.6075,2.17242 -13.0423,2.27654 -16.1968,1.17533 z m 79.377,-16.3464 c -2.7116,-0.8033 -6.437,-4.91747 -10.0918,-11.1454 -3.1182,-5.31299 -3.2131,-5.71885 -7.348,-31.36595 -5.4191,-33.61571 -5.6191,-47.24696 -0.7412,-50.58532 8.6772,-5.93895 53.0948,-11.89693 65.9646,-8.84832 1.8326,0.43409 4.1257,1.64512 5.0963,2.69115 5.2093,5.6148 12.5261,43.53245 12.7693,66.17394 0.1549,14.47624 -0.6496,19.67118 -3.2047,20.67615 -11.7148,4.60772 -57.8362,13.7691 -62.4445,12.40375 z m 36.3208,-26.58457 c 6.5093,-4.53553 7.0149,-8.63239 3.5436,-28.7215 -3.1177,-18.04251 -4.5617,-21.31319 -10.115,-22.91249 -4.1718,-1.2014 -14.5159,-0.54435 -22.1333,1.40597 -8.4172,2.1551 -8.6334,3.16148 -5.2958,24.63664 3.0832,19.83764 4.9192,25.75009 8.6487,27.85042 5.2861,2.97692 19.6775,1.6946 25.3518,-2.25904 z M 573.5029,681.0869 c -3.87635,-25.93717 -4.46251,-28.84509 -6.27989,-31.15752 -1.10246,-1.40269 -2.95493,-2.74418 -4.11658,-2.98101 -2.69662,-0.5498 -9.12197,1.60664 -12.68171,4.25623 l -2.75102,2.04758 3.72279,27.93053 3.72279,27.93045 -5.22368,1.2955 c -2.87305,0.7126 -6.43707,1.75486 -7.92007,2.3163 l -2.69637,1.02073 -1.55881,-6.95793 c -3.45303,-15.41307 -7.7158,-35.57332 -11.14187,-52.69413 -1.98851,-9.93703 -4.15353,-20.02453 -4.81112,-22.41662 -1.15659,-4.20722 -1.11755,-4.39207 1.19398,-5.65597 1.52907,-0.83601 5.20382,-1.51359 10.20395,-1.88157 7.78421,-0.57275 7.81566,-0.56596 8.16279,1.75674 0.56475,3.77868 2.59751,10.02632 3.23143,9.93158 0.32211,-0.0481 0.88815,-1.49017 1.25779,-3.2045 0.89308,-4.14176 5.83457,-12.24983 9.03346,-14.82238 3.0078,-2.41878 10.48667,-3.81155 15.62079,-2.90892 9.27946,1.63126 16.06573,9.22828 19.58538,21.92548 1.2037,4.34214 4.22321,21.20959 6.71015,37.48314 l 4.5215,29.58822 -3.44963,1.08371 c -1.89722,0.59599 -7.18702,1.90221 -11.75508,2.9026 l -8.3056,1.8189 -4.27536,-28.60714 z m -77.99461,-37.05764 c -8.59217,-3.42606 -13.06208,-22.05221 -7.33177,-30.55138 3.01407,-4.47048 6.66795,-5.07108 11.00333,-1.80872 5.80294,4.3667 8.95212,13.15334 7.66036,21.37363 -1.36645,8.69574 -5.94484,13.13459 -11.33192,10.98647 z M 768.4046,603.24464 c -8.59217,-3.42614 -13.06199,-22.05222 -7.33182,-30.5514 3.01409,-4.47046 6.66807,-5.07106 11.00335,-1.8087 5.80297,4.36662 8.95212,13.15333 7.66046,21.37365 -1.36657,8.69573 -5.94485,13.13457 -11.33199,10.98645 z M 165.91245,693.5872 c -3.80436,-0.42567 -8.69618,-8.7502 -9.88091,-16.81457 -1.35867,-9.24823 1.67816,-16.8832 7.03364,-17.68357 6.43696,-0.96198 12.12342,5.85082 13.66103,16.36713 1.6655,11.39136 -2.88343,19.01836 -10.81376,18.13101 z M 1343.2338,482.29558 c -9.974,-0.11727 -31.4087,-4.98811 -31.6826,-7.19944 -0.073,-0.57461 -0.3312,-6.27259 -0.5778,-12.66184 -0.2464,-6.38937 -0.6668,-17.23154 -0.9336,-24.09374 -0.6658,-17.10917 -0.6012,-18.08508 1.214,-18.35637 0.8415,-0.1259 2.5148,0.23851 3.7185,0.80958 5.2244,2.47824 32.2418,5.35547 40.0876,4.2691 10.8136,-1.49726 12.503,-3.6145 11.5909,-14.52798 -0.3831,-4.58324 -0.9632,-7.30056 -1.6157,-7.56604 -0.5601,-0.22787 -8.1541,-1.06815 -16.876,-1.86728 -24.1068,-2.20885 -31.1466,-4.53912 -36.5683,-12.10516 -3.1179,-4.35134 -3.2788,-4.89921 -4.9326,-16.79198 -1.8222,-13.10838 -1.9315,-27.96444 -0.3199,-43.51455 1.1521,-11.11605 2.3112,-13.81943 7.3863,-17.22809 3.8281,-2.571 4.9423,-2.86758 17.7813,-4.73385 10.7179,-1.55792 15.5817,-1.86492 22.3611,-1.41135 9.9697,0.66703 24.8633,2.47611 26.0172,3.16027 0.9431,0.55912 2.3963,35.2207 1.5277,36.44069 -0.3453,0.48528 -3.8874,0.55737 -8.2209,0.16757 -10.4687,-0.94193 -22.8621,-0.33081 -34.2509,1.68892 -9.2535,1.64103 -9.6326,1.78738 -11.0238,4.25893 -1.8349,3.25997 -1.4789,11.52112 0.5724,13.28157 2.192,1.88121 6.367,2.58588 19.9979,3.37555 17.5502,1.01676 20.766,1.65102 24.4362,4.81993 5.9298,5.11988 7.1913,8.71271 10.1639,28.94941 2.8513,19.41405 3.2841,31.10432 1.766,47.76987 -1.9513,21.42142 -4.8973,25.36297 -22.9472,30.70098 -7.0353,2.0805 -10.0815,2.46644 -18.6717,2.36535 z M 835.31638,547.2431 c -0.47685,-1.52543 -2.05106,-7.6595 -3.49868,-13.63132 -8.58727,-35.42994 -22.72956,-77.41908 -43.84939,-130.19153 -13.78994,-34.45745 -25.56167,-65.92654 -30.66078,-81.96506 -6.69321,-21.05255 -7.9249,-25.21812 -8.40317,-28.4183 -0.48687,-3.25716 -0.33618,-3.52098 3.04102,-5.32709 3.67785,-1.96681 12.47434,-6.04217 25.39374,-11.7647 4.109,-1.82008 8.00597,-3.19849 8.65987,-3.06313 0.6657,0.13787 2.10892,3.06897 3.28032,6.6628 1.15029,3.5292 2.36669,6.88744 2.70324,7.46282 0.90342,1.54492 3.08215,0.95588 11.74026,-3.17379 14.7185,-7.02049 36.53356,-14.15445 48.96378,-16.01215 5.84869,-0.8741 13.93113,0.92748 23.23297,5.17877 15.56618,7.11432 23.70262,20.16366 38.50533,61.75607 11.7607,33.04523 17.05986,57.47682 16.04908,73.99291 -1.33884,21.87789 -7.74663,33.48352 -21.9885,39.82592 -1.16417,0.51829 -2.93075,1.61734 -3.92578,2.44218 -3.44489,2.85525 -22.34834,11.46686 -26.88532,12.24776 -7.72728,1.33001 -11.38615,-0.48166 -29.04193,-14.37918 -2.53706,-1.99685 -4.85311,-3.31972 -5.14712,-2.93955 -0.29398,0.38004 1.86717,8.23253 4.80251,17.44993 6.82402,21.42853 12.10899,39.8261 16.27847,56.66631 3.87005,15.6315 3.70248,14.72899 3.01041,16.21202 -0.42729,0.91549 -18.56798,8.92763 -29.52544,13.04047 -1.57774,0.59221 -2.0029,0.2701 -2.73489,-2.07216 z M 872.791,407.70131 c 10.34047,-3.42122 14.63479,-5.8785 16.2964,-9.32482 2.30603,-4.78246 -4.84996,-37.45208 -10.51226,-47.99255 -3.50256,-6.52024 -5.39381,-8.76754 -10.5316,-12.5147 -15.77261,-11.50356 -32.65329,-5.29407 -52.00424,19.12951 -2.39449,3.02214 -4.47687,6.20663 -4.62738,7.07663 -0.15121,0.87004 1.67831,6.28143 4.06435,12.02534 2.38604,5.7439 6.30161,15.2131 8.70137,21.04258 2.39975,5.82947 5.01154,11.32677 5.80401,12.21607 1.05465,1.18347 3.59909,1.77772 9.48858,2.21628 14.51137,1.08038 20.423,0.39298 33.32077,-3.87434 z M 514.04403,585.86577 c -18.71516,-1.76368 -38.79857,-7.98589 -46.89686,-14.52956 -9.2708,-7.49101 -16.32581,-21.93915 -23.48086,-48.08723 -1.66095,-6.06969 -4.55535,-22.81274 -8.60506,-49.77691 l -6.10234,-40.63075 -4.48211,-1.29409 c -5.24408,-1.51421 -4.67352,0.47907 -6.2316,-21.77076 -1.79126,-25.57968 -2.41863,-39.3064 -1.85358,-40.55714 0.42363,-0.93767 1.19646,-1.04416 3.89978,-0.53738 1.85432,0.34762 3.56344,0.38376 3.79805,0.0804 0.23463,-0.30344 0.007,-8.38655 -0.50585,-17.96244 -1.36178,-25.4278 -1.53564,-32.66813 -0.80714,-33.61032 0.3626,-0.46894 2.25419,0.0408 4.27581,1.15211 1.99405,1.09618 8.55606,3.07651 14.58229,4.4007 6.0262,1.32417 11.57699,2.83314 12.33507,3.35323 1.16681,0.80052 1.55428,3.68786 2.52482,18.81444 0.63054,9.82786 1.75357,22.42611 2.49558,27.99609 l 1.34913,10.12732 5.61979,1.35483 c 3.0909,0.74517 6.00265,1.69869 6.47057,2.1189 1.70273,1.52913 5.5603,45.89607 4.15257,47.75996 -0.36311,0.48079 -2.54603,0.52803 -5.02808,0.10867 -3.16807,-0.53508 -4.66576,-0.44123 -5.39231,0.33798 -2.02831,2.17537 10.13127,75.2708 14.27648,85.82084 0.92099,2.34395 2.73691,5.3771 4.03538,6.74021 4.75378,4.99055 14.74047,6.56982 27.80638,4.39734 4.81615,-0.80079 7.25315,-0.85857 7.85861,-0.18628 0.48269,0.53597 2.69136,13.06895 4.90816,27.85097 l 4.03051,26.87637 -2.43737,0.30484 c -1.34055,0.16775 -7.00867,-0.1259 -12.59581,-0.65241 z m 43.34873,-12.57405 c -3.45214,0.16036 -9.41779,0.46614 -13.25695,0.67964 -5.06159,0.28153 -7.25085,0.0384 -7.96442,-0.88611 -2.4506,-3.1735 -24.61864,-89.34798 -33.35085,-129.64575 -4.35772,-20.11027 -12.62839,-63.0404 -14.30066,-74.22967 -0.99302,-6.64456 0.0141,-7.4318 6.76463,-5.28326 2.67641,0.85194 6.76719,2.03475 9.09055,2.62847 2.32339,0.59368 7.33372,2.15847 11.13409,3.47725 3.8004,1.31879 7.42766,2.48119 8.06059,2.58312 0.83339,0.13415 1.87188,4.17706 3.76516,14.65774 1.56826,8.68143 2.97496,14.46795 3.51556,14.46117 0.49567,-0.009 1.99906,-2.64427 3.34088,-5.86242 3.18946,-7.64925 11.42031,-20.23287 15.38617,-23.52292 1.72479,-1.43087 5.71089,-3.59169 8.85809,-4.80188 5.22393,-2.0088 6.24326,-2.15498 11.70814,-1.67918 9.06986,0.78986 14.29391,5.24963 19.04504,16.25888 5.19723,12.04283 19.71153,58.42645 19.09611,61.02597 -0.18021,0.76161 -0.95967,1.66271 -1.73211,2.00249 -1.84202,0.81027 -15.17954,4.31534 -24.123,6.33936 -8.10865,1.83504 -8.15501,1.80352 -9.44526,-6.42472 -0.94912,-6.05194 -4.23017,-14.1833 -6.41589,-15.89993 -2.28134,-1.79184 -9.08257,-1.04245 -12.60232,1.38856 -1.27433,0.8801 -2.87946,1.91415 -3.56702,2.29797 -4.83664,2.6996 -11.15616,9.15237 -11.34337,11.58243 -0.19097,2.47887 5.28474,30.61513 9.91662,50.95514 2.91952,12.82045 9.01043,36.72869 15.26633,59.92398 4.16215,15.43202 4.26036,17.38127 0.88646,17.59137 -0.8008,0.05 -4.28045,0.22184 -7.73259,0.38212 z M 1273.0327,462.21603 c -1.4818,0.0546 -3.0299,-0.12887 -3.4402,-0.40826 -0.4106,-0.27933 -0.7728,-7.30285 -0.8052,-15.608 -0.1072,-27.67792 -1.3519,-55.44807 -3.042,-67.88085 -2.5222,-18.55377 -5.56,-22.53685 -15.9977,-20.97693 -5.0818,0.75949 -10.9081,3.74457 -11.7711,6.0308 -0.3229,0.85513 -0.1143,10.41645 0.4614,21.24746 1.0645,19.99919 3.1017,69.47213 2.8726,69.75177 -0.069,0.0838 -3.2137,-0.12078 -6.9881,-0.45541 -3.7744,-0.33459 -8.1317,-0.42539 -9.6829,-0.2017 -1.5512,0.22295 -3.0685,0.12413 -3.3719,-0.22121 -0.3036,-0.34532 -0.9003,-5.41654 -1.3257,-11.26945 -1.2169,-16.7393 -11.7726,-114.14773 -14.2294,-131.31147 -0.2784,-1.94488 0.05,-2.38729 1.9777,-2.67559 2.8085,-0.41973 22.0739,4.10493 23.8074,5.59145 0.9,0.77186 1.4482,3.63727 2.0011,10.46332 0.8584,10.59381 1.9526,11.9337 3.9329,4.81545 1.5321,-5.50715 7.1427,-15.25739 10.5141,-18.27144 4.0228,-3.59666 9.9484,-4.70137 15.6312,-2.91414 10.7119,3.36904 17.4785,9.87788 22.7505,21.88372 1.9503,4.44228 2.9831,8.92374 4.7233,20.49816 4.0273,26.77569 8.6608,104.56054 6.3908,107.25505 -0.6729,0.79874 -20.0504,4.49602 -24.4088,4.65727 z M 667.01262,544.0271 c -6.69391,-1.05362 -14.21282,-7.64926 -20.29589,-17.80346 -8.96107,-14.95857 -21.83034,-64.20317 -18.86159,-72.17407 1.52515,-4.09478 6.53319,-9.3265 12.90251,-13.47899 5.80735,-3.78599 25.55165,-14.23428 31.9621,-16.91353 2.1033,-0.87904 7.80728,-3.49114 12.67588,-5.80456 4.86823,-2.31342 11.52452,-5.35111 14.79148,-6.75049 l 5.93992,-2.5444 -0.94779,-5.83163 c -1.60465,-9.87393 -4.69013,-17.77113 -7.72376,-19.76898 -2.54217,-1.6744 -2.96839,-1.67127 -11.84471,0.0876 -6.41977,1.27203 -15.16547,4.03364 -28.88364,9.12042 -10.82175,4.01281 -21.22744,7.789 -23.12379,8.39156 -1.89634,0.60256 -7.09182,2.53918 -11.5458,4.30367 -4.45382,1.76441 -9.69991,3.70279 -11.65797,4.30751 -3.22616,0.99627 -3.63514,0.9226 -4.3636,-0.78565 -0.44204,-1.03672 -2.58174,-10.96634 -4.75501,-22.06588 -2.17311,-11.09945 -4.59344,-22.87741 -5.37853,-26.1732 -0.91692,-3.84891 -1.16061,-6.69952 -0.68144,-7.9694 2.06753,-5.47865 32.79794,-20.13347 63.63458,-30.34621 14.59311,-4.83308 34.12729,-7.8643 40.15971,-6.23175 11.89218,3.21844 28.04107,16.27701 36.88874,29.82967 4.92504,7.54401 5.74178,9.59114 18.9003,47.37278 4.4123,12.66891 8.97145,25.42406 10.1314,28.34477 2.43212,6.12381 12.83957,36.21694 19.24634,55.6504 2.41154,7.31485 4.22557,13.97146 4.03129,14.79265 -0.48865,2.06391 -20.60447,14.90444 -41.76664,26.66072 -11.35206,6.30642 -30.4345,14.51511 -44.59843,19.18479 -9.02331,2.97494 -31.18319,7.17053 -34.83573,6.59564 z m 40.81805,-49.84459 c 10.93248,-5.68695 26.02886,-15.96065 27.14942,-18.47633 0.47581,-1.06825 -0.49619,-4.46606 -3.32392,-11.61992 -2.19789,-5.56051 -5.92658,-15.19242 -8.2857,-21.40417 -4.69961,-12.37395 -4.96425,-12.85438 -6.92179,-12.56184 -2.47517,0.36987 -28.81983,11.28998 -34.31684,14.22455 -2.98932,1.59582 -7.8486,4.19559 -10.79834,5.77732 -2.94975,1.58172 -6.20825,3.92692 -7.24144,5.21154 -1.80016,2.23848 -1.80967,2.65051 -0.22841,9.89321 1.07012,4.90149 3.36594,11.25486 6.53268,18.07875 7.12293,15.34834 9.74299,18.38006 15.77101,18.24826 5.84236,-0.12783 11.32407,-1.99311 21.66333,-7.37137 z m 476.84923,-34.11647 c -15.7793,-1.25112 -55.6645,-8.56312 -68.4339,-12.54558 -5.0876,-1.58663 -5.9283,-2.2042 -8.7166,-6.40302 -3.7872,-5.70284 -7.5348,-13.19236 -11.2928,-22.56823 -5.9709,-14.89777 -16.8118,-82.18051 -17.7987,-110.46831 -0.4728,-13.54864 0.1406,-20.62006 2.0244,-23.32464 3.8052,-5.4642 24.1505,-2.85692 56.8761,7.28873 17.9674,5.57036 21.1845,6.73451 32.0923,11.61339 17.4184,7.79111 19.5035,10.45705 23.8191,30.45246 5.0113,23.22079 7.7698,56.59801 7.0368,85.14798 -0.646,25.1626 -2.2448,38.68822 -4.7884,40.51324 -0.8517,0.61107 -1.6812,1.08211 -1.8432,1.04666 -0.1618,-0.0358 -4.2009,-0.37406 -8.9751,-0.75268 z m -19.5959,-40.19471 c 4.4886,-2.84117 5.288,-8.49785 4.2029,-29.7331 -1.2076,-23.63467 -5.0502,-43.98357 -9.4381,-49.98421 -3.6884,-5.04376 -14.3504,-11.14468 -25.7644,-14.74248 -4.5371,-1.43008 -15.5635,-2.98245 -18.29,-2.57496 -5.3769,0.80358 -5.0454,13.60625 1.3687,52.83092 5.2968,32.39456 5.3402,32.50851 14.7367,38.72232 12.6517,8.36641 25.3205,10.45905 33.1842,5.48151 z m -128.9693,60.63035 c -16.611,0.16159 -33.0844,-2.88275 -40.5987,-7.50296 -4.2862,-2.63533 -8.91569,-8.85005 -13.87979,-18.63276 -9.34,-18.40648 -16.99851,-42.05843 -34.23115,-105.71668 -2.57011,-9.49436 -4.97514,-17.47629 -5.34416,-17.73755 -0.36931,-0.26129 -2.93693,-0.43199 -5.70609,-0.3794 -2.76917,0.0526 -5.24722,-0.0546 -5.50666,-0.23827 -1.33587,-0.94529 -10.76517,-39.72993 -12.52946,-51.53604 l -0.76787,-5.13781 5.26828,-0.21257 c 2.8975,-0.11692 5.42525,-0.57271 5.61704,-1.01286 0.19168,-0.44016 -1.65991,-9.9487 -4.11475,-21.13006 -3.34639,-15.24258 -4.24708,-20.60953 -3.59891,-21.44768 0.64808,-0.83817 2.10097,-0.82739 5.80627,0.0432 2.71825,0.63856 9.0661,1.52639 14.10651,1.97301 13.96306,1.2372 24.07919,2.73959 25.20135,3.74278 0.556,0.49715 2.5985,9.62431 4.5389,20.28257 4.8232,26.49495 3.9873,24.82271 13.2174,26.44509 4.2797,0.75216 7.90629,1.89802 8.36839,2.64399 1.3388,2.16081 5.1247,24.31278 5.5761,32.62755 0.4711,8.67459 1.126,8.01115 -8.00639,8.10708 l -4.8634,0.051 2.1197,9.98069 c 14.45139,68.04878 17.28699,78.13995 23.23949,82.69942 3.8931,2.98208 8.3545,3.32175 20.3608,1.5503 l 10.8219,-1.59664 1.5285,10.15724 c 1.6235,10.79218 5.2555,46.35566 5.0712,49.65599 -0.1249,2.2366 0.024,2.2074 -11.6938,2.32133 z m 26.9226,-12.81793 c -5.117,0.60919 -9.6612,0.85458 -10.0984,0.54525 -0.4369,-0.30924 -3.0656,-14.60395 -5.8419,-31.76599 -5.1449,-31.80582 -9.8327,-56.88065 -16.5157,-88.34188 -2.0581,-9.68865 -4.3369,-21.42147 -5.0636,-26.07292 l -1.3211,-8.4573 2.6194,-0.0942 c 4.9141,-0.17683 30.8987,2.40269 32.2887,3.20537 1.0705,0.61814 1.5304,2.47365 2.0205,8.15426 0.3493,4.04468 2.5025,21.29032 4.7849,38.32357 4.5872,34.22993 6.0612,49.33735 7.7415,79.33214 1.0809,19.30016 0.956,24.30963 -0.6024,24.14076 -0.3895,-0.042 -4.8946,0.42168 -10.0117,1.03094 z M 401.64116,503.7905 c -18.17701,-2.9702 -21.6738,-3.71252 -22.26696,-4.72696 -0.33946,-0.58049 -1.08779,-8.11751 -1.66295,-16.74902 -4.13903,-62.11246 -5.54784,-77.4489 -7.86089,-85.57626 -2.60549,-9.15497 -4.71918,-12.20116 -9.31277,-13.42142 -5.32264,-1.4139 -13.59944,0.58252 -16.16367,3.8988 -1.82668,2.36244 -1.87831,3.50044 -1.02532,22.59756 1.05146,23.53953 2.64856,49.61722 3.86441,63.09775 0.47371,5.25188 0.64191,10.03443 0.37381,10.62784 -0.35301,0.78143 -2.32987,0.73507 -7.16757,-0.1681 -3.6741,-0.6858 -7.61751,-1.10693 -8.76318,-0.93565 -4.60566,0.68829 -4.95012,0.2394 -6.19169,-8.06798 -3.3781,-22.60353 -11.25489,-121.38516 -11.19211,-140.35923 l 0.0141,-4.32949 4.05328,-0.47654 c 3.76287,-0.44244 16.02232,1.96007 19.28949,3.78015 1.06299,0.59218 1.47457,2.42252 1.90719,8.48162 0.30341,4.24956 0.53219,9.18988 0.5084,10.97846 -0.0669,5.02068 1.72173,3.75184 3.86377,-2.74112 2.2827,-6.91943 8.23661,-16.95202 11.7252,-19.75748 4.10174,-3.29852 8.78792,-3.5162 15.15619,-0.70398 9.87826,4.36223 16.32731,11.44111 22.03396,24.18581 2.25416,5.03421 3.03768,8.99125 6.9075,34.88485 4.23433,28.33263 13.16045,100.24415 13.79039,111.0997 0.37262,6.42064 0.44348,6.39448 -11.88078,4.38064 z M 291.36924,487.88486 c -1.24447,-0.0196 -7.76598,-0.15877 -14.49225,-0.30845 -6.72629,-0.14963 -19.08772,-0.0491 -27.46984,0.22423 -18.05454,0.58785 -27.56378,0.23253 -28.86569,-1.07852 -4.4007,-4.43163 -10.16278,-16.84316 -12.47874,-26.87924 -2.75728,-11.9487 -5.00777,-56.73278 -4.14635,-82.51251 0.7944,-23.77569 2.53308,-35.47346 5.92452,-39.8602 2.02776,-2.62285 3.37222,-3.34032 9.92352,-5.29536 15.25685,-4.55298 44.57681,-5.45781 59.14404,-1.82523 8.24446,2.05588 12.83011,4.19382 16.18048,7.54362 l 2.70969,2.7092 2.88173,20.0054 c 2.75401,19.11834 3.98626,35.72013 4.42282,59.58686 0.4381,23.94833 -1.33352,57.09932 -3.38019,63.25206 -0.93433,2.80873 -1.47817,3.26406 -4.57573,3.8311 -1.93347,0.35386 -4.53358,0.627 -5.77801,0.60704 z M 268.9813,452.63912 c 6.42748,-4.38421 7.55404,-11.18101 6.65601,-40.15739 -0.26431,-8.52874 -1.20549,-20.52791 -2.09149,-26.66483 -1.43513,-9.94086 -1.87348,-11.48367 -4.01791,-14.1428 -4.9029,-6.07965 -16.7105,-8.68557 -28.12093,-6.20623 -7.79268,1.69323 -9.72874,2.84659 -10.55816,6.28975 -3.3538,13.92282 -0.48318,70.1549 3.93868,77.15354 1.7256,2.73126 9.53446,6.47287 15.22075,7.29314 6.26437,0.9036 14.76266,-0.69319 18.97305,-3.56518 z m -114.31552,41.84726 c -23.61697,1.40241 -25.65,1.10935 -32.64947,-4.70763 -6.99208,-5.81083 -10.24643,-12.03615 -12.49903,-23.90958 -2.58519,-13.6267 -5.10963,-58.76158 -4.51248,-80.6802 0.67592,-24.80908 7.7787,-38.86006 21.94612,-43.41448 7.85074,-2.52375 22.83192,-4.6316 33.31797,-4.6878 9.70811,-0.0521 29.92752,0.94778 31.41599,1.55352 1.81659,0.73925 3.21486,27.3573 2.38256,45.35495 -0.52851,11.42819 0.83988,10.28048 -14.87777,12.47807 -18.71469,2.61657 -39.9193,7.13061 -42.74503,9.09943 -4.17963,2.91222 -6.68279,15.91858 -5.1008,26.50383 0.88268,5.90627 1.19591,6.63938 3.21395,7.52245 4.87249,2.13195 16.22754,2.31279 34.38512,0.54775 9.86266,-0.95869 18.14227,-1.5944 18.39919,-1.41259 0.42431,0.30031 2.70803,31.31039 3.30408,44.86557 l 0.24561,5.58534 -16.32312,2.54437 c -8.97769,1.39948 -17.93399,2.64018 -19.90288,2.75702 z M 1030.1317,287.61802 c -5.4847,-1.31189 -12.5636,-8.60452 -17.6191,-18.15107 -2.4426,-4.61246 -3.2326,-7.35085 -4.4279,-15.34949 -1.2584,-8.41931 -1.2621,-10.24689 -0.029,-13.51815 3.439,-9.11913 9.7481,-11.91575 17.0435,-7.55503 6.1308,3.66463 10.0403,8.1297 14.4466,16.49902 3.4754,6.6016 4.0161,8.31741 4.6451,14.73899 0.8589,8.7721 -0.9922,16.06446 -5.0793,20.00681 -3.4447,3.323 -5.6257,4.13138 -8.9806,3.3289 z m -169.86887,-61.8223 c -0.3158,-0.54782 -1.60113,-5.12663 -2.85656,-10.17511 -1.25543,-5.04852 -2.51984,-10.1173 -2.80997,-11.26395 l -0.52749,-2.08488 29.50224,-4.98079 c 16.22641,-2.73941 32.42349,-5.82455 35.99374,-6.85586 3.57028,-1.03129 6.97544,-1.96452 7.56706,-2.07385 2.22252,-0.41063 3.11617,-5.57819 1.9717,-11.39952 l -1.10974,-5.64403 -10.5346,2.00716 c -5.79416,1.10393 -20.07344,3.42926 -31.73177,5.16741 -19.70681,2.93816 -21.68318,3.09109 -28.11565,2.17626 -14.27502,-2.03023 -20.67159,-5.67456 -23.8,-13.55927 -1.58159,-3.98616 -1.95067,-6.86216 -2.43139,-18.94791 -0.79741,-20.04443 0.98942,-32.71277 5.42194,-38.44551 5.16312,-6.6774 23.5266,-12.57509 56.89344,-18.27213 l 23.09702,-3.94355 -0.0439,-4.08876 c -0.0247,-2.24878 0.16358,-4.54973 0.41851,-5.11321 0.71769,-1.58856 28.76817,-2.0101 30.5345,-0.45885 1.08648,0.95424 2.78495,11.24737 8.65623,52.45672 6.82233,47.88749 7.25078,51.70573 6.49408,57.88166 -1.01222,8.26348 -2.922,14.22396 -5.63173,17.5779 -2.57337,3.1849 -6.71161,4.65821 -25.86351,9.20797 -18.76367,4.45754 -70.24694,12.3017 -71.09394,10.8321 z m 54.00978,-74.02107 c 3.30634,-1.26226 7.21824,-3.26316 8.69309,-4.44646 l 2.68163,-2.15145 -2.4832,-14.27191 c -1.39615,-8.02469 -2.92994,-14.58816 -3.50386,-14.99433 -1.63502,-1.15717 -15.48512,-1.19978 -26.79671,-0.0825 -13.96822,1.37975 -22.95269,4.196 -26.02358,8.15731 l -2.1928,2.82844 1.75867,8.17798 c 3.0366,14.12052 8.22187,23.14067 13.51073,23.50292 4.12446,0.28247 28.50543,-4.48643 34.35603,-6.72004 z M 596.29883,252.54904 c -5.44966,-0.25537 -6.40202,-1.41332 -8.20804,-9.98046 -2.0391,-9.67315 -1.4284,-12.58516 2.96178,-14.12238 1.71717,-0.60123 7.15086,-1.71492 12.07468,-2.47484 11.65428,-1.79863 12.36886,-1.40721 14.62126,8.0095 1.98074,8.28082 1.65879,12.51426 -1.08681,14.29567 -2.61076,1.69385 -15.89781,4.48174 -20.36287,4.27251 z m 496.42907,-78.67671 c -23.067,1.77475 -30.4357,-1.2474 -37.6055,-15.42309 -3.4439,-6.80919 -7.2559,-21.80943 -9.7115,-38.21673 l -1.4866,-9.94715 -5.2991,0.79197 c -3.5981,0.53775 -5.3812,0.45697 -5.555,-0.25167 -0.5351,-2.18029 -1.8324,-13.23831 -2.4406,-20.80066 l -0.6331,-7.87232 5.3806,-1.0592 5.3805,-1.05916 -1.504,-11.74702 -1.5038,-11.747 6.9112,-0.40137 c 3.8013,-0.22077 13.1059,-1.09232 20.6768,-1.9368 l 13.7652,-1.53543 2.3395,12.6325 2.3392,12.63248 7.3229,-0.84303 7.3227,-0.84303 0.8277,6.11597 c 0.4552,3.3638 0.6818,8.27986 0.5043,10.92443 l -0.3229,4.80839 -6.5606,1.4132 -6.5604,1.41321 0.2632,5.58623 c 0.4628,9.82159 3.9754,31.65254 5.5754,34.65119 2.5183,4.71935 6.2604,5.35163 17.7786,3.00387 5.301,-1.08051 12.2641,-2.79202 15.4735,-3.80338 3.2093,-1.01136 6.0548,-1.68341 6.3231,-1.4935 0.7158,0.50645 1.9191,27.52983 1.2607,28.30645 -0.9797,1.15533 -29.1706,5.8471 -40.2592,6.70022 z m -430.0796,60.9343 c -5.56505,-0.0123 -18.74309,-3.8106 -23.2581,-6.70316 -8.93153,-5.72218 -12.59745,-12.14767 -14.45703,-25.34064 -1.46096,-10.36547 -0.8971,-18.45432 1.67303,-23.99935 6.49135,-14.0054 26.73306,-24.81787 54.12444,-28.91153 10.60229,-1.58453 23.92557,-2.10575 31.18336,-1.21996 1.73686,0.21196 3.3334,0.15841 3.54793,-0.11888 0.3346,-0.43292 -1.47365,-8.89172 -7.82012,-36.57894 l -1.2781,-5.57694 4.65899,-1.19454 c 9.36426,-2.40084 31.68835,-7.8508 32.88331,-8.02772 1.03998,-0.15437 2.13617,6.42886 7.13629,42.85797 3.24902,23.67197 6.16867,47.8692 6.48783,53.77162 0.3193,5.90243 0.7958,14.00995 1.0587,18.01672 l 0.47824,7.28505 -6.536,1.57603 c -10.33222,2.49136 -84.4828,14.17645 -89.88276,14.1643 z m 52.94936,-33.941 c 8.06329,-2.0932 14.87605,-4.0835 15.13944,-4.42288 0.72372,-0.9328 -1.27179,-17.10757 -2.74965,-22.28648 l -1.29853,-4.55048 -27.46855,4.4702 c -30.48021,4.9603 -31.57301,5.31612 -33.50239,10.90864 -0.65024,1.88492 -0.81499,5.114 -0.40196,7.88286 0.71988,4.82862 4.24774,13.87509 5.85467,15.01449 2.81224,1.99395 20.44479,-0.79077 44.42697,-7.01635 z m 574.12044,-61.46627 c -0.2305,-0.16387 -2.3778,-13.40376 -4.7717,-29.42199 -2.8864,-19.31298 -6.4621,-39.03124 -10.6153,-58.53367 -3.4444,-16.1753 -5.9788,-29.7346 -5.6318,-30.1318 0.347,-0.39717 8.8773,-2.63383 18.9567,-4.97032 10.079,-2.33652 18.5724,-4.44681 18.8744,-4.68959 1.2887,-1.0363 1.7323,1.6595 2.5988,15.7911 0.5035,8.21833 1.327,20.33341 1.8294,26.92247 0.5026,6.58905 1.3252,17.56579 1.8283,24.39278 0.5027,6.82697 1.7188,21.81391 2.7022,33.30428 0.9834,11.49032 1.466,21.30791 1.0725,21.8168 -0.6988,0.90389 -26.0141,6.10955 -26.8435,5.51994 z m -509.59926,44.28186 c -2.80327,-16.59846 -5.81561,-33.22634 -6.69426,-36.95088 l -1.5976,-6.77184 3.3554,-1.02868 c 1.84551,-0.56576 10.5919,-2.38083 19.43624,-4.03353 l 16.08084,-3.00485 -0.16002,2.10488 c -0.0879,1.1577 0.44276,9.02525 1.17895,17.48344 1.89705,21.80034 2.06374,31.0476 0.94564,52.49162 -0.0739,1.40167 -0.89746,2.89381 -1.92204,3.47844 -1.48434,0.84705 -19.902,5.56968 -24.26279,6.22142 -1.06255,0.15879 -2.07728,-4.6253 -6.36088,-29.99003 z m 202.60457,-27.68303 c -2.6042,-15.20015 -5.6184,-31.82744 -6.6982,-36.94957 l -1.9637,-9.31285 3.3607,-1.02627 c 1.8483,-0.56444 10.4293,-2.35546 19.06879,-3.98005 l 15.7082,-2.95383 1.0839,11.44007 c 1.8143,19.15902 2.5541,38.29464 1.9704,50.97783 -0.4732,10.28607 -0.8125,12.20476 -2.3081,13.05636 -1.455,0.82839 -19.9324,5.55478 -24.22249,6.19594 -1.0596,0.15845 -2.0323,-4.2911 -5.9995,-27.44763 z m 168.62399,-8.03456 c -6.318,0.27137 -10.7775,-1.38048 -15.2209,-5.63798 -3.2746,-3.13787 -5.3015,-10.50452 -5.5711,-20.2485 -0.3799,-13.72906 0.6855,-15.80999 10.0851,-19.70453 6.6305,-2.74721 30.1384,-8.1891 53.959,-12.4911 18.8031,-3.39583 19.1355,-3.48886 19.3435,-5.41058 0.116,-1.07543 -0.1373,-3.42112 -0.5638,-5.21269 -0.6163,-2.58892 -1.3028,-3.40924 -3.3452,-3.99754 -4.5231,-1.30294 -30.4902,1.71375 -59.7062,6.93627 -14.9685,2.67571 -27.4429,4.77358 -27.721,4.66191 -0.2779,-0.11165 -0.9714,-5.82831 -1.5416,-12.70356 -0.9653,-11.63918 -0.9142,-12.54637 0.7407,-13.16636 9.3622,-3.50703 28.5825,-7.53914 53.9087,-11.30923 42.9717,-6.39675 54.0783,-5.802 68.4473,3.66524 5.9052,3.89094 10.0196,8.72802 11.3721,13.37046 1.224,4.20016 4.4269,35.5771 5.2115,51.05277 l 0.5483,10.81173 -20.1841,4.57322 c -21.543,4.88118 -78.8928,14.3437 -89.7623,14.81047 z m 51.5536,-25.11985 c 6.4845,-1.46914 13.258,-3.11978 15.0525,-3.66816 l 3.2631,-0.99701 -1.8428,-10.64481 -1.8425,-10.6448 -12.8426,1.66843 c -13.1957,1.71434 -37.1084,6.48362 -39.6306,7.90413 -2.3307,1.31274 -2.7088,6.04849 -0.9187,11.50719 2.0125,6.13678 3.7934,9.17564 5.5961,9.54877 5.2621,1.08937 11.7872,0.16988 33.1655,-4.67374 z M 97.47612,304.42061 c -0.29742,-0.61111 -2.70571,-8.3821 -5.35177,-17.26882 -2.646053,-8.88677 -6.262453,-20.61439 -8.036473,-26.06141 -5.72927,-17.59148 -12.44132,-37.91087 -14.06412,-42.57634 -0.5702,-1.63928 -0.72362,-3.22405 -0.34093,-3.52168 0.38269,-0.29762 8.82861,-2.03378 18.76874,-3.85817 l 18.072953,-3.31702 2.64913,6.82189 c 1.45704,3.75204 3.49398,8.83769 4.52657,11.30142 1.03258,2.46375 3.24607,7.97489 4.91885,12.24698 5.94825,15.19097 7.60746,18.85043 8.19623,18.07698 0.32794,-0.43084 3.5889,-9.29683 7.24656,-19.70224 3.65763,-10.40539 7.44899,-20.80596 8.42516,-23.11237 l 1.77488,-4.19345 9.96428,-1.48917 c 6.93433,-1.03634 10.26799,-1.2056 10.96305,-0.55659 0.87092,0.8132 2.52481,3.35208 7.57816,11.63316 7.02118,11.50587 19.64445,30.35803 20.41077,30.48241 1.85906,0.30176 6.41173,-23.40116 8.63649,-44.96486 l 1.38521,-13.42616 13.56599,-2.03071 13.566,-2.03071 -0.10849,3.26178 c -0.0596,1.79394 -1.34731,20.9727 -2.86139,42.61946 -1.51406,21.64676 -2.90948,41.61919 -3.10089,44.3832 -0.19142,2.76398 -0.54583,5.28122 -0.78755,5.59386 -0.24173,0.31263 -8.85879,1.89395 -19.14899,3.51398 l -18.7095,2.94558 -2.90272,-5.62452 c -1.59651,-3.09346 -4.19227,-8.35274 -5.76838,-11.68727 -1.57609,-3.33455 -3.34624,-6.96463 -3.93365,-8.06687 -0.58744,-1.10224 -2.34997,-4.73346 -3.91675,-8.06935 -3.91708,-8.34005 -3.77637,-8.09389 -4.54288,-7.94579 -0.37713,0.0727 -3.35299,5.39343 -6.613,11.82344 -3.26001,6.43002 -8.81953,17.29849 -12.35449,24.15218 l -6.42718,12.46123 -15.57971,3.40371 c -8.56883,1.87205 -17.82508,3.96406 -20.56947,4.64894 -3.81178,0.95126 -5.11742,0.98294 -5.53053,0.13418 z M 262.41,278.03762 c -0.5302,-1.52695 -1.93012,-6.33181 -3.11088,-10.67745 -1.1808,-4.34564 -2.78905,-9.75249 -3.57397,-12.01524 -0.78493,-2.26272 -3.0789,-9.31968 -5.09776,-15.68213 -2.01882,-6.36243 -6.17768,-19.08305 -9.24192,-28.26809 -3.06421,-9.18499 -5.73364,-17.78611 -5.93204,-19.11363 l -0.36071,-2.41365 18.08627,-3.3303 c 9.94748,-1.83167 18.34564,-3.14675 18.66263,-2.92243 0.31699,0.22435 2.74797,5.83295 5.40216,12.46361 2.6542,6.63066 6.44404,16.09535 8.42187,21.03264 1.97783,4.93731 3.6639,9.43089 3.74682,9.98575 0.083,0.55486 0.74509,2.0164 1.47147,3.24786 1.28768,2.18304 1.40719,1.9881 4.78264,-7.79859 1.90409,-5.52071 5.78738,-16.32448 8.62955,-24.0084 l 5.1676,-13.97076 10.36925,-1.5497 10.36926,-1.54969 3.88209,6.12723 c 3.31933,5.23899 15.89299,24.73058 22.14545,34.32965 1.05667,1.62227 2.35544,2.88866 2.88613,2.81417 0.53078,-0.074 2.11645,-6.2468 3.52388,-13.71631 2.17831,-11.5606 3.34762,-19.87541 5.8465,-41.57335 l 0.38294,-3.32506 13.4608,-1.77305 c 11.34842,-1.49481 13.46653,-1.57018 13.49739,-0.48031 0.0605,2.13745 -1.85702,30.7343 -4.33791,64.69337 -1.27232,17.41575 -1.44123,19.8228 -1.72505,24.58548 l -0.2919,4.89811 -8.39763,1.80526 c -4.61871,0.99292 -13.24872,2.53231 -19.17776,3.42087 l -10.78014,1.6155 -3.85928,-7.86161 c -2.1226,-4.32388 -6.59206,-13.48987 -9.93208,-20.36886 -3.34003,-6.87898 -6.42963,-12.77199 -6.86574,-13.09559 -0.733,-0.54385 -3.86416,5.19485 -19.86714,36.41223 l -5.93083,11.56936 -15.31667,3.33529 c -8.42419,1.83441 -17.71398,3.91999 -20.64399,4.63468 l -5.32733,1.29935 -0.96399,-2.7763 z m 167.09404,-23.73489 c -0.37454,-0.80281 -1.31228,-3.8968 -2.08388,-6.87559 -2.11022,-8.14641 -10.52146,-34.75617 -20.37608,-64.46171 -3.08433,-9.29726 -5.38116,-17.18692 -5.10407,-17.5326 0.55558,-0.69308 36.94372,-7.51913 37.02933,-6.94634 0.0294,0.19628 2.32519,6.0247 5.1019,12.95205 2.77669,6.92733 7.00756,17.51237 9.40194,23.52227 2.39437,6.00991 4.64741,11.26161 5.00675,11.67048 0.35932,0.40885 4.43251,-9.88869 9.05148,-22.88342 l 8.3982,-23.62683 10.52328,-1.57271 10.52328,-1.57272 1.96626,2.73529 c 1.08143,1.50443 7.36009,11.19357 13.95259,21.53143 6.5925,10.33788 12.35626,18.61393 12.80835,18.39131 1.77167,-0.87253 6.44696,-25.63375 8.44995,-44.7523 l 1.3817,-13.1886 13.43452,-2.24725 13.43449,-2.24727 -0.0206,4.13711 c -0.0105,2.27539 -1.27203,21.65532 -2.80206,43.06644 -1.53005,21.41115 -2.92005,41.09205 -3.08885,43.73535 l -0.30694,4.80596 -6.10294,1.45368 c -3.3566,0.79954 -11.90963,2.3699 -19.00668,3.48971 l -12.90375,2.03597 -1.27251,-2.18989 c -0.69992,-1.20442 -2.56819,-4.91723 -4.15175,-8.25061 -5.59371,-11.77477 -6.75626,-14.17139 -8.41614,-17.3499 -0.92234,-1.76621 -2.71436,-5.39302 -3.98226,-8.05959 -1.26792,-2.66656 -2.65475,-5.132 -3.08184,-5.47874 -0.4271,-0.34675 -2.37844,2.47638 -4.33633,6.27362 -1.95788,3.79727 -7.59014,14.71151 -12.51616,24.25393 l -8.95637,17.34977 -12.19029,2.77272 c -30.00304,6.82425 -29.0194,6.65706 -29.76495,5.05898 z M 778.60423,122.95962 c -8.77099,-1.05858 -15.17901,-7.24358 -15.66853,-15.12332 -0.93927,-15.11695 19.2351,-21.92756 31.37872,-10.59305 5.79312,5.40723 5.79681,12.4616 0.0175,19.02245 -2.23357,2.53206 -9.9698,7.08374 -12.03108,7.07845 -0.28238,-6.2e-4 -1.94223,-0.17373 -3.68859,-0.38453 z M 980.93681,92.74259 c -8.5754,-1.04118 -14.6344,-6.43227 -15.7703,-14.03179 -1.5306,-10.24159 7.9557,-18.60756 19.4784,-17.17821 14.47659,1.79579 20.72959,14.52334 11.99799,24.42199 -2.292,2.59862 -10.01609,7.16944 -12.10629,7.16412 -0.2825,-7e-4 -1.9022,-0.17005 -3.5998,-0.37608 z"
       style="fill:#ffffff;stroke:#000000;stroke-opacity:1;stroke-width:3;stroke-miterlimit:4;stroke-dasharray:none" />
  </g>
</svg>
